<svg width="1440" height="4133" viewBox="0 0 1440 4133" fill="none" xmlns="http://www.w3.org/2000/svg">
<rect x="1321.59" y="1372.99" width="11.4651" height="171.977" rx="5.73256" transform="rotate(-45 1321.59 1372.99)" fill="#444444"/>
<rect x="1324.06" y="1364.88" width="11.4651" height="171.977" rx="5.73256" transform="rotate(15 1324.06 1364.88)" fill="#444444"/>
<rect x="1282.51" y="1535.12" width="11.4651" height="171.977" rx="5.73256" transform="rotate(-105 1282.51 1535.12)" fill="#444444"/>
<rect x="1359.8" y="1334.77" width="11.4651" height="171.977" rx="5.73256" transform="rotate(-45 1359.8 1334.77)" fill="black"/>
<rect x="1362.28" y="1326.66" width="11.4651" height="171.977" rx="5.73256" transform="rotate(15 1362.28 1326.66)" fill="black"/>
<rect x="1320.73" y="1496.9" width="11.4651" height="171.977" rx="5.73256" transform="rotate(-105 1320.73 1496.9)" fill="black"/>
<rect x="0.586243" y="2643.99" width="11.4651" height="171.977" rx="5.73256" transform="rotate(-45 0.586243 2643.99)" fill="#444444"/>
<rect x="3.05835" y="2635.88" width="11.4651" height="171.977" rx="5.73256" transform="rotate(15 3.05835 2635.88)" fill="#444444"/>
<rect x="-38.485" y="2806.12" width="11.4651" height="171.977" rx="5.73256" transform="rotate(-105 -38.485 2806.12)" fill="#444444"/>
<rect x="38.8033" y="2605.77" width="11.4651" height="171.977" rx="5.73256" transform="rotate(-45 38.8033 2605.77)" fill="black"/>
<rect x="41.2754" y="2597.66" width="11.4651" height="171.977" rx="5.73256" transform="rotate(15 41.2754 2597.66)" fill="black"/>
<rect x="-0.268005" y="2767.9" width="11.4651" height="171.977" rx="5.73256" transform="rotate(-105 -0.268005 2767.9)" fill="black"/>
<rect x="1341.59" y="3914.99" width="11.4651" height="171.977" rx="5.73256" transform="rotate(-45 1341.59 3914.99)" fill="#444444"/>
<rect x="1344.06" y="3906.88" width="11.4651" height="171.977" rx="5.73256" transform="rotate(15 1344.06 3906.88)" fill="#444444"/>
<rect x="1302.51" y="4077.12" width="11.4651" height="171.977" rx="5.73256" transform="rotate(-105 1302.51 4077.12)" fill="#444444"/>
<rect x="1379.8" y="3876.77" width="11.4651" height="171.977" rx="5.73256" transform="rotate(-45 1379.8 3876.77)" fill="black"/>
<rect x="1382.28" y="3868.66" width="11.4651" height="171.977" rx="5.73256" transform="rotate(15 1382.28 3868.66)" fill="black"/>
<rect x="1340.73" y="4038.9" width="11.4651" height="171.977" rx="5.73256" transform="rotate(-105 1340.73 4038.9)" fill="black"/>
<rect x="-19.4138" y="474.988" width="11.4651" height="171.977" rx="5.73256" transform="rotate(-45 -19.4138 474.988)" fill="#444444"/>
<rect x="-58.485" y="637.118" width="11.4651" height="171.977" rx="5.73256" transform="rotate(-105 -58.485 637.118)" fill="#444444"/>
<rect x="18.8033" y="436.771" width="11.4651" height="171.977" rx="5.73256" transform="rotate(-45 18.8033 436.771)" fill="black"/>
<rect x="21.2754" y="428.664" width="11.4651" height="171.977" rx="5.73256" transform="rotate(15 21.2754 428.664)" fill="black"/>
<rect x="-20.268" y="598.901" width="11.4651" height="171.977" rx="5.73256" transform="rotate(-105 -20.268 598.901)" fill="black"/>
<rect x="1386.68" y="218.594" width="5.50326" height="82.5488" rx="2.75163" transform="rotate(-45 1386.68 218.594)" fill="#444444"/>
<rect x="1387.87" y="214.703" width="5.50326" height="82.5488" rx="2.75163" transform="rotate(15 1387.87 214.703)" fill="#444444"/>
<rect x="1367.93" y="296.416" width="5.50326" height="82.5488" rx="2.75163" transform="rotate(-105 1367.93 296.416)" fill="#444444"/>
<rect x="1405.03" y="200.25" width="5.50326" height="82.5488" rx="2.75163" transform="rotate(-45 1405.03 200.25)" fill="black"/>
<rect x="1406.21" y="196.359" width="5.50326" height="82.5488" rx="2.75163" transform="rotate(15 1406.21 196.359)" fill="black"/>
<rect x="1386.27" y="278.072" width="5.50326" height="82.5488" rx="2.75163" transform="rotate(-105 1386.27 278.072)" fill="black"/>
<rect x="10.6815" y="1168.59" width="5.50326" height="82.5488" rx="2.75163" transform="rotate(-45 10.6815 1168.59)" fill="#444444"/>
<rect x="11.868" y="1164.7" width="5.50326" height="82.5488" rx="2.75163" transform="rotate(15 11.868 1164.7)" fill="#444444"/>
<rect x="-8.07281" y="1246.42" width="5.50326" height="82.5488" rx="2.75163" transform="rotate(-105 -8.07281 1246.42)" fill="#444444"/>
<rect x="29.0256" y="1150.25" width="5.50326" height="82.5488" rx="2.75163" transform="rotate(-45 29.0256 1150.25)" fill="black"/>
<rect x="30.2122" y="1146.36" width="5.50326" height="82.5488" rx="2.75163" transform="rotate(15 30.2122 1146.36)" fill="black"/>
<rect x="10.2713" y="1228.07" width="5.50326" height="82.5488" rx="2.75163" transform="rotate(-105 10.2713 1228.07)" fill="black"/>
<rect x="1376.68" y="3054.59" width="5.50326" height="82.5488" rx="2.75163" transform="rotate(-45 1376.68 3054.59)" fill="#444444"/>
<rect x="1377.87" y="3050.7" width="5.50326" height="82.5488" rx="2.75163" transform="rotate(15 1377.87 3050.7)" fill="#444444"/>
<rect x="1357.93" y="3132.42" width="5.50326" height="82.5488" rx="2.75163" transform="rotate(-105 1357.93 3132.42)" fill="#444444"/>
<rect x="1395.03" y="3036.25" width="5.50326" height="82.5488" rx="2.75163" transform="rotate(-45 1395.03 3036.25)" fill="black"/>
<rect x="1396.21" y="3032.36" width="5.50326" height="82.5488" rx="2.75163" transform="rotate(15 1396.21 3032.36)" fill="black"/>
<rect x="1376.27" y="3114.07" width="5.50326" height="82.5488" rx="2.75163" transform="rotate(-105 1376.27 3114.07)" fill="black"/>
<rect x="689.569" y="624" width="24" height="120" rx="12" transform="rotate(-30 689.569 624)" fill="#999999"/>
<rect x="684" y="710.354" width="24" height="120" rx="12" transform="rotate(-120 684 710.354)" fill="#999999"/>
<rect x="697.883" y="619.2" width="20.8" height="104" rx="10.4" transform="rotate(-30 697.883 619.2)" fill="black"/>
<rect x="693.056" y="694.04" width="20.8" height="104" rx="10.4" transform="rotate(-120 693.056 694.04)" fill="black"/>
<rect x="-1.43079" y="2083" width="24" height="120" rx="12" transform="rotate(-30 -1.43079 2083)" fill="#999999"/>
<rect x="-7" y="2169.35" width="24" height="120" rx="12" transform="rotate(-120 -7 2169.35)" fill="#999999"/>
<rect x="6.88306" y="2078.2" width="20.8" height="104" rx="10.4" transform="rotate(-30 6.88306 2078.2)" fill="black"/>
<rect x="2.0564" y="2153.04" width="20.8" height="104" rx="10.4" transform="rotate(-120 2.0564 2153.04)" fill="black"/>
<rect x="-5.43079" y="3523" width="24" height="120" rx="12" transform="rotate(-30 -5.43079 3523)" fill="#999999"/>
<rect x="-11" y="3609.35" width="24" height="120" rx="12" transform="rotate(-120 -11 3609.35)" fill="#999999"/>
<rect x="2.88306" y="3518.2" width="20.8" height="104" rx="10.4" transform="rotate(-30 2.88306 3518.2)" fill="black"/>
<rect x="-1.9436" y="3593.04" width="20.8" height="104" rx="10.4" transform="rotate(-120 -1.9436 3593.04)" fill="black"/>
<rect x="249" y="676" width="75" height="5" rx="2.5" transform="rotate(-15 249 676)" fill="#363636"/>
<rect x="267.117" y="743.615" width="75" height="5" rx="2.5" transform="rotate(-15 267.117 743.615)" fill="#363636"/>
<rect x="268.411" y="748.444" width="75" height="5" rx="2.5" transform="rotate(-105 268.411 748.444)" fill="#363636"/>
<rect x="336.026" y="730.327" width="75" height="5" rx="2.5" transform="rotate(-105 336.026 730.327)" fill="#363636"/>
<rect x="259" y="666.411" width="75" height="5" rx="2.5" transform="rotate(-15 259 666.411)" fill="black"/>
<rect x="277.117" y="734.026" width="75" height="5" rx="2.5" transform="rotate(-15 277.117 734.026)" fill="black"/>
<rect x="278.411" y="738.856" width="75" height="5" rx="2.5" transform="rotate(-105 278.411 738.856)" fill="black"/>
<rect x="346.026" y="720.739" width="75" height="5" rx="2.5" transform="rotate(-105 346.026 720.739)" fill="black"/>
<rect x="-27" y="1690.71" width="110.45" height="7.36335" rx="3.68167" transform="rotate(-15 -27 1690.71)" fill="#363636"/>
<rect x="-0.319153" y="1790.28" width="110.45" height="7.36335" rx="3.68167" transform="rotate(-15 -0.319153 1790.28)" fill="#363636"/>
<rect x="1.58661" y="1797.39" width="110.45" height="7.36335" rx="3.68167" transform="rotate(-105 1.58661 1797.39)" fill="#363636"/>
<rect x="101.161" y="1770.71" width="110.45" height="7.36335" rx="3.68167" transform="rotate(-105 101.161 1770.71)" fill="#363636"/>
<rect x="-12.2733" y="1676.59" width="110.45" height="7.36335" rx="3.68167" transform="rotate(-15 -12.2733 1676.59)" fill="black"/>
<rect x="14.4075" y="1776.16" width="110.45" height="7.36335" rx="3.68167" transform="rotate(-15 14.4075 1776.16)" fill="black"/>
<rect x="16.3133" y="1783.27" width="110.45" height="7.36335" rx="3.68167" transform="rotate(-105 16.3133 1783.27)" fill="black"/>
<rect x="115.888" y="1756.59" width="110.45" height="7.36335" rx="3.68167" transform="rotate(-105 115.888 1756.59)" fill="black"/>
<rect x="1318" y="2555.71" width="110.45" height="7.36335" rx="3.68167" transform="rotate(-15 1318 2555.71)" fill="#363636"/>
<rect x="1344.68" y="2655.28" width="110.45" height="7.36335" rx="3.68167" transform="rotate(-15 1344.68 2655.28)" fill="#363636"/>
<rect x="1346.59" y="2662.39" width="110.45" height="7.36335" rx="3.68167" transform="rotate(-105 1346.59 2662.39)" fill="#363636"/>
<rect x="1446.16" y="2635.71" width="110.45" height="7.36335" rx="3.68167" transform="rotate(-105 1446.16 2635.71)" fill="#363636"/>
<rect x="1332.73" y="2541.59" width="110.45" height="7.36335" rx="3.68167" transform="rotate(-15 1332.73 2541.59)" fill="black"/>
<rect x="1359.41" y="2641.16" width="110.45" height="7.36335" rx="3.68167" transform="rotate(-15 1359.41 2641.16)" fill="black"/>
<rect x="1361.31" y="2648.27" width="110.45" height="7.36335" rx="3.68167" transform="rotate(-105 1361.31 2648.27)" fill="black"/>
<rect x="1460.89" y="2621.59" width="110.45" height="7.36335" rx="3.68167" transform="rotate(-105 1460.89 2621.59)" fill="black"/>
<mask id="path-78-inside-1_39_169" fill="white">
<path d="M1310.87 131.127C1301.72 121.97 1295.53 110.267 1293.12 97.5427C1290.72 84.8187 1292.2 71.6645 1297.38 59.7953C1302.56 47.9261 1311.19 37.8925 1322.15 31.003C1333.12 24.1134 1345.91 20.6875 1358.85 21.1719C1371.79 21.6563 1384.28 26.0285 1394.7 33.7185C1405.12 41.4085 1412.98 52.0595 1417.26 64.2826C1421.53 76.5058 1422.03 89.7339 1418.68 102.242C1415.33 114.751 1408.28 125.959 1398.47 134.406L1368.93 100.078C1371.84 97.5682 1373.94 94.2373 1374.93 90.5201C1375.93 86.8028 1375.78 82.8716 1374.51 79.2391C1373.24 75.6066 1370.9 72.4414 1367.81 70.156C1364.71 67.8707 1361 66.5714 1357.15 66.4274C1353.31 66.2835 1349.51 67.3016 1346.25 69.349C1342.99 71.3965 1340.42 74.3783 1338.89 77.9056C1337.35 81.4329 1336.91 85.3421 1337.62 89.1234C1338.34 92.9048 1340.17 96.3828 1342.9 99.104L1310.87 131.127Z"/>
</mask>
<path d="M1310.87 131.127C1301.72 121.97 1295.53 110.267 1293.12 97.5427C1290.72 84.8187 1292.2 71.6645 1297.38 59.7953C1302.56 47.9261 1311.19 37.8925 1322.15 31.003C1333.12 24.1134 1345.91 20.6875 1358.85 21.1719C1371.79 21.6563 1384.28 26.0285 1394.7 33.7185C1405.12 41.4085 1412.98 52.0595 1417.26 64.2826C1421.53 76.5058 1422.03 89.7339 1418.68 102.242C1415.33 114.751 1408.28 125.959 1398.47 134.406L1368.93 100.078C1371.84 97.5682 1373.94 94.2373 1374.93 90.5201C1375.93 86.8028 1375.78 82.8716 1374.51 79.2391C1373.24 75.6066 1370.9 72.4414 1367.81 70.156C1364.71 67.8707 1361 66.5714 1357.15 66.4274C1353.31 66.2835 1349.51 67.3016 1346.25 69.349C1342.99 71.3965 1340.42 74.3783 1338.89 77.9056C1337.35 81.4329 1336.91 85.3421 1337.62 89.1234C1338.34 92.9048 1340.17 96.3828 1342.9 99.104L1310.87 131.127Z" stroke="#C4C4C4" stroke-width="10" mask="url(#path-78-inside-1_39_169)"/>
<mask id="path-79-inside-2_39_169" fill="white">
<path d="M1332 110C1322.84 100.843 1316.66 89.1399 1314.25 76.4159C1311.84 63.6919 1313.32 50.5377 1318.5 38.6685C1323.68 26.7993 1332.32 16.7658 1343.28 9.87621C1354.25 2.98664 1367.03 -0.439296 1379.97 0.0450944C1392.91 0.529485 1405.41 4.90173 1415.83 12.5917C1426.25 20.2817 1434.11 30.9327 1438.38 43.1558C1442.66 55.379 1443.16 68.6072 1439.8 81.1156C1436.45 93.624 1429.41 104.832 1419.59 113.279L1390.05 78.9517C1392.97 76.4415 1395.06 73.1106 1396.06 69.3933C1397.06 65.676 1396.91 61.7449 1395.64 58.1124C1394.37 54.4799 1392.03 51.3146 1388.93 49.0293C1385.84 46.7439 1382.13 45.4446 1378.28 45.3006C1374.43 45.1567 1370.63 46.1748 1367.38 48.2223C1364.12 50.2697 1361.55 53.2515 1360.01 56.7788C1358.47 60.3061 1358.03 64.2153 1358.75 67.9966C1359.46 71.778 1361.3 75.256 1364.02 77.9773L1332 110Z"/>
</mask>
<path d="M1332 110C1322.84 100.843 1316.66 89.1399 1314.25 76.4159C1311.84 63.6919 1313.32 50.5377 1318.5 38.6685C1323.68 26.7993 1332.32 16.7658 1343.28 9.87621C1354.25 2.98664 1367.03 -0.439296 1379.97 0.0450944C1392.91 0.529485 1405.41 4.90173 1415.83 12.5917C1426.25 20.2817 1434.11 30.9327 1438.38 43.1558C1442.66 55.379 1443.16 68.6072 1439.8 81.1156C1436.45 93.624 1429.41 104.832 1419.59 113.279L1390.05 78.9517C1392.97 76.4415 1395.06 73.1106 1396.06 69.3933C1397.06 65.676 1396.91 61.7449 1395.64 58.1124C1394.37 54.4799 1392.03 51.3146 1388.93 49.0293C1385.84 46.7439 1382.13 45.4446 1378.28 45.3006C1374.43 45.1567 1370.63 46.1748 1367.38 48.2223C1364.12 50.2697 1361.55 53.2515 1360.01 56.7788C1358.47 60.3061 1358.03 64.2153 1358.75 67.9966C1359.46 71.778 1361.3 75.256 1364.02 77.9773L1332 110Z" stroke="black" stroke-width="10" mask="url(#path-79-inside-2_39_169)"/>
<mask id="path-80-inside-3_39_169" fill="white">
<path d="M1185.87 705.127C1176.72 695.97 1170.53 684.267 1168.12 671.543C1165.72 658.819 1167.2 645.664 1172.38 633.795C1177.56 621.926 1186.19 611.892 1197.15 605.003C1208.12 598.113 1220.91 594.687 1233.85 595.172C1246.79 595.656 1259.28 600.028 1269.7 607.718C1280.12 615.408 1287.98 626.059 1292.26 638.283C1296.53 650.506 1297.03 663.734 1293.68 676.242C1290.33 688.751 1283.28 699.959 1273.47 708.406L1243.93 674.078C1246.84 671.568 1248.94 668.237 1249.93 664.52C1250.93 660.803 1250.78 656.872 1249.51 653.239C1248.24 649.607 1245.9 646.441 1242.81 644.156C1239.71 641.871 1236 640.571 1232.15 640.427C1228.31 640.283 1224.51 641.302 1221.25 643.349C1217.99 645.396 1215.42 648.378 1213.89 651.906C1212.35 655.433 1211.91 659.342 1212.62 663.123C1213.34 666.905 1215.17 670.383 1217.9 673.104L1185.87 705.127Z"/>
</mask>
<path d="M1185.87 705.127C1176.72 695.97 1170.53 684.267 1168.12 671.543C1165.72 658.819 1167.2 645.664 1172.38 633.795C1177.56 621.926 1186.19 611.892 1197.15 605.003C1208.12 598.113 1220.91 594.687 1233.85 595.172C1246.79 595.656 1259.28 600.028 1269.7 607.718C1280.12 615.408 1287.98 626.059 1292.26 638.283C1296.53 650.506 1297.03 663.734 1293.68 676.242C1290.33 688.751 1283.28 699.959 1273.47 708.406L1243.93 674.078C1246.84 671.568 1248.94 668.237 1249.93 664.52C1250.93 660.803 1250.78 656.872 1249.51 653.239C1248.24 649.607 1245.9 646.441 1242.81 644.156C1239.71 641.871 1236 640.571 1232.15 640.427C1228.31 640.283 1224.51 641.302 1221.25 643.349C1217.99 645.396 1215.42 648.378 1213.89 651.906C1212.35 655.433 1211.91 659.342 1212.62 663.123C1213.34 666.905 1215.17 670.383 1217.9 673.104L1185.87 705.127Z" stroke="#C4C4C4" stroke-width="10" mask="url(#path-80-inside-3_39_169)"/>
<mask id="path-81-inside-4_39_169" fill="white">
<path d="M1207 684C1197.84 674.843 1191.66 663.14 1189.25 650.416C1186.84 637.692 1188.32 624.538 1193.5 612.669C1198.68 600.799 1207.32 590.766 1218.28 583.876C1229.25 576.987 1242.03 573.561 1254.97 574.045C1267.91 574.529 1280.41 578.902 1290.83 586.592C1301.25 594.282 1309.11 604.933 1313.38 617.156C1317.66 629.379 1318.16 642.607 1314.8 655.116C1311.45 667.624 1304.41 678.832 1294.59 687.279L1265.05 652.952C1267.97 650.441 1270.06 647.111 1271.06 643.393C1272.06 639.676 1271.91 635.745 1270.64 632.112C1269.37 628.48 1267.03 625.315 1263.93 623.029C1260.84 620.744 1257.13 619.445 1253.28 619.301C1249.43 619.157 1245.63 620.175 1242.38 622.222C1239.12 624.27 1236.55 627.252 1235.01 630.779C1233.47 634.306 1233.03 638.215 1233.75 641.997C1234.46 645.778 1236.3 649.256 1239.02 651.977L1207 684Z"/>
</mask>
<path d="M1207 684C1197.84 674.843 1191.66 663.14 1189.25 650.416C1186.84 637.692 1188.32 624.538 1193.5 612.669C1198.68 600.799 1207.32 590.766 1218.28 583.876C1229.25 576.987 1242.03 573.561 1254.97 574.045C1267.91 574.529 1280.41 578.902 1290.83 586.592C1301.25 594.282 1309.11 604.933 1313.38 617.156C1317.66 629.379 1318.16 642.607 1314.8 655.116C1311.45 667.624 1304.41 678.832 1294.59 687.279L1265.05 652.952C1267.97 650.441 1270.06 647.111 1271.06 643.393C1272.06 639.676 1271.91 635.745 1270.64 632.112C1269.37 628.48 1267.03 625.315 1263.93 623.029C1260.84 620.744 1257.13 619.445 1253.28 619.301C1249.43 619.157 1245.63 620.175 1242.38 622.222C1239.12 624.27 1236.55 627.252 1235.01 630.779C1233.47 634.306 1233.03 638.215 1233.75 641.997C1234.46 645.778 1236.3 649.256 1239.02 651.977L1207 684Z" stroke="black" stroke-width="10" mask="url(#path-81-inside-4_39_169)"/>
<mask id="path-82-inside-5_39_169" fill="white">
<path d="M735.873 1497.13C726.716 1487.97 720.531 1476.27 718.123 1463.54C715.716 1450.82 717.198 1437.66 722.377 1425.8C727.555 1413.93 736.19 1403.89 747.155 1397C758.12 1390.11 770.906 1386.69 783.847 1387.17C796.788 1387.66 809.282 1392.03 819.701 1399.72C830.121 1407.41 837.981 1418.06 842.258 1430.28C846.535 1442.51 847.029 1455.73 843.677 1468.24C840.325 1480.75 833.282 1491.96 823.466 1500.41L793.927 1466.08C796.844 1463.57 798.937 1460.24 799.933 1456.52C800.93 1452.8 800.783 1448.87 799.512 1445.24C798.241 1441.61 795.905 1438.44 792.808 1436.16C789.712 1433.87 785.999 1432.57 782.153 1432.43C778.307 1432.28 774.507 1433.3 771.249 1435.35C767.99 1437.4 765.424 1440.38 763.885 1443.91C762.346 1447.43 761.906 1451.34 762.621 1455.12C763.337 1458.9 765.175 1462.38 767.896 1465.1L735.873 1497.13Z"/>
</mask>
<path d="M735.873 1497.13C726.716 1487.97 720.531 1476.27 718.123 1463.54C715.716 1450.82 717.198 1437.66 722.377 1425.8C727.555 1413.93 736.19 1403.89 747.155 1397C758.12 1390.11 770.906 1386.69 783.847 1387.17C796.788 1387.66 809.282 1392.03 819.701 1399.72C830.121 1407.41 837.981 1418.06 842.258 1430.28C846.535 1442.51 847.029 1455.73 843.677 1468.24C840.325 1480.75 833.282 1491.96 823.466 1500.41L793.927 1466.08C796.844 1463.57 798.937 1460.24 799.933 1456.52C800.93 1452.8 800.783 1448.87 799.512 1445.24C798.241 1441.61 795.905 1438.44 792.808 1436.16C789.712 1433.87 785.999 1432.57 782.153 1432.43C778.307 1432.28 774.507 1433.3 771.249 1435.35C767.99 1437.4 765.424 1440.38 763.885 1443.91C762.346 1447.43 761.906 1451.34 762.621 1455.12C763.337 1458.9 765.175 1462.38 767.896 1465.1L735.873 1497.13Z" stroke="#C4C4C4" stroke-width="10" mask="url(#path-82-inside-5_39_169)"/>
<mask id="path-83-inside-6_39_169" fill="white">
<path d="M757 1476C747.843 1466.84 741.658 1455.14 739.25 1442.42C736.843 1429.69 738.325 1416.54 743.503 1404.67C748.682 1392.8 757.317 1382.77 768.282 1375.88C779.247 1368.99 792.033 1365.56 804.974 1366.05C817.914 1366.53 830.409 1370.9 840.828 1378.59C851.247 1386.28 859.108 1396.93 863.384 1409.16C867.661 1421.38 868.156 1434.61 864.804 1447.12C861.452 1459.62 854.409 1470.83 844.593 1479.28L815.054 1444.95C817.971 1442.44 820.064 1439.11 821.06 1435.39C822.056 1431.68 821.909 1427.74 820.638 1424.11C819.367 1420.48 817.031 1417.31 813.935 1415.03C810.839 1412.74 807.125 1411.44 803.28 1411.3C799.434 1411.16 795.634 1412.17 792.375 1414.22C789.117 1416.27 786.551 1419.25 785.012 1422.78C783.473 1426.31 783.032 1430.22 783.748 1434C784.463 1437.78 786.301 1441.26 789.023 1443.98L757 1476Z"/>
</mask>
<path d="M757 1476C747.843 1466.84 741.658 1455.14 739.25 1442.42C736.843 1429.69 738.325 1416.54 743.503 1404.67C748.682 1392.8 757.317 1382.77 768.282 1375.88C779.247 1368.99 792.033 1365.56 804.974 1366.05C817.914 1366.53 830.409 1370.9 840.828 1378.59C851.247 1386.28 859.108 1396.93 863.384 1409.16C867.661 1421.38 868.156 1434.61 864.804 1447.12C861.452 1459.62 854.409 1470.83 844.593 1479.28L815.054 1444.95C817.971 1442.44 820.064 1439.11 821.06 1435.39C822.056 1431.68 821.909 1427.74 820.638 1424.11C819.367 1420.48 817.031 1417.31 813.935 1415.03C810.839 1412.74 807.125 1411.44 803.28 1411.3C799.434 1411.16 795.634 1412.17 792.375 1414.22C789.117 1416.27 786.551 1419.25 785.012 1422.78C783.473 1426.31 783.032 1430.22 783.748 1434C784.463 1437.78 786.301 1441.26 789.023 1443.98L757 1476Z" stroke="black" stroke-width="10" mask="url(#path-83-inside-6_39_169)"/>
<mask id="path-84-inside-7_39_169" fill="white">
<path d="M135.873 4114.13C126.716 4104.97 120.531 4093.27 118.123 4080.54C115.716 4067.82 117.198 4054.66 122.377 4042.8C127.555 4030.93 136.19 4020.89 147.155 4014C158.12 4007.11 170.906 4003.69 183.847 4004.17C196.788 4004.66 209.282 4009.03 219.701 4016.72C230.121 4024.41 237.981 4035.06 242.258 4047.28C246.535 4059.51 247.029 4072.73 243.677 4085.24C240.325 4097.75 233.282 4108.96 223.466 4117.41L193.927 4083.08C196.844 4080.57 198.937 4077.24 199.933 4073.52C200.93 4069.8 200.783 4065.87 199.512 4062.24C198.241 4058.61 195.905 4055.44 192.808 4053.16C189.712 4050.87 185.999 4049.57 182.153 4049.43C178.307 4049.28 174.507 4050.3 171.249 4052.35C167.99 4054.4 165.424 4057.38 163.885 4060.91C162.346 4064.43 161.906 4068.34 162.621 4072.12C163.337 4075.9 165.175 4079.38 167.896 4082.1L135.873 4114.13Z"/>
</mask>
<path d="M135.873 4114.13C126.716 4104.97 120.531 4093.27 118.123 4080.54C115.716 4067.82 117.198 4054.66 122.377 4042.8C127.555 4030.93 136.19 4020.89 147.155 4014C158.12 4007.11 170.906 4003.69 183.847 4004.17C196.788 4004.66 209.282 4009.03 219.701 4016.72C230.121 4024.41 237.981 4035.06 242.258 4047.28C246.535 4059.51 247.029 4072.73 243.677 4085.24C240.325 4097.75 233.282 4108.96 223.466 4117.41L193.927 4083.08C196.844 4080.57 198.937 4077.24 199.933 4073.52C200.93 4069.8 200.783 4065.87 199.512 4062.24C198.241 4058.61 195.905 4055.44 192.808 4053.16C189.712 4050.87 185.999 4049.57 182.153 4049.43C178.307 4049.28 174.507 4050.3 171.249 4052.35C167.99 4054.4 165.424 4057.38 163.885 4060.91C162.346 4064.43 161.906 4068.34 162.621 4072.12C163.337 4075.9 165.175 4079.38 167.896 4082.1L135.873 4114.13Z" stroke="#C4C4C4" stroke-width="10" mask="url(#path-84-inside-7_39_169)"/>
<mask id="path-85-inside-8_39_169" fill="white">
<path d="M157 4093C147.843 4083.84 141.658 4072.14 139.25 4059.42C136.843 4046.69 138.325 4033.54 143.503 4021.67C148.682 4009.8 157.317 3999.77 168.282 3992.88C179.247 3985.99 192.033 3982.56 204.974 3983.05C217.914 3983.53 230.409 3987.9 240.828 3995.59C251.247 4003.28 259.108 4013.93 263.384 4026.16C267.661 4038.38 268.156 4051.61 264.804 4064.12C261.452 4076.62 254.409 4087.83 244.593 4096.28L215.054 4061.95C217.971 4059.44 220.064 4056.11 221.06 4052.39C222.056 4048.68 221.909 4044.74 220.638 4041.11C219.367 4037.48 217.031 4034.31 213.935 4032.03C210.839 4029.74 207.125 4028.44 203.28 4028.3C199.434 4028.16 195.634 4029.17 192.375 4031.22C189.117 4033.27 186.551 4036.25 185.012 4039.78C183.473 4043.31 183.032 4047.22 183.748 4051C184.463 4054.78 186.301 4058.26 189.023 4060.98L157 4093Z"/>
</mask>
<path d="M157 4093C147.843 4083.84 141.658 4072.14 139.25 4059.42C136.843 4046.69 138.325 4033.54 143.503 4021.67C148.682 4009.8 157.317 3999.77 168.282 3992.88C179.247 3985.99 192.033 3982.56 204.974 3983.05C217.914 3983.53 230.409 3987.9 240.828 3995.59C251.247 4003.28 259.108 4013.93 263.384 4026.16C267.661 4038.38 268.156 4051.61 264.804 4064.12C261.452 4076.62 254.409 4087.83 244.593 4096.28L215.054 4061.95C217.971 4059.44 220.064 4056.11 221.06 4052.39C222.056 4048.68 221.909 4044.74 220.638 4041.11C219.367 4037.48 217.031 4034.31 213.935 4032.03C210.839 4029.74 207.125 4028.44 203.28 4028.3C199.434 4028.16 195.634 4029.17 192.375 4031.22C189.117 4033.27 186.551 4036.25 185.012 4039.78C183.473 4043.31 183.032 4047.22 183.748 4051C184.463 4054.78 186.301 4058.26 189.023 4060.98L157 4093Z" stroke="black" stroke-width="10" mask="url(#path-85-inside-8_39_169)"/>
</svg>
