<svg width="718" height="2067" viewBox="0 0 718 2067" fill="none" xmlns="http://www.w3.org/2000/svg">
<g clip-path="url(#clip0_1_2)">
<g clip-path="url(#clip1_1_2)">
<path d="M666.875 684.468C665.756 683.349 663.941 683.349 662.822 684.468C661.702 685.588 661.702 687.402 662.822 688.522L719.571 745.271C720.691 746.391 722.505 746.391 723.625 745.271C724.744 744.152 724.744 742.337 723.625 741.218L666.875 684.468Z" fill="#444444"/>
<path d="M666.825 686.692C667.235 685.163 666.328 683.592 664.799 683.182C663.27 682.772 661.698 683.68 661.288 685.209L640.516 762.73C640.107 764.259 641.014 765.831 642.543 766.24C644.072 766.65 645.644 765.743 646.054 764.214L666.825 686.692Z" fill="#444444"/>
<path d="M642.54 761.281C641.011 761.691 640.103 763.262 640.513 764.791C640.923 766.32 642.495 767.228 644.024 766.818L721.545 746.046C723.074 745.637 723.981 744.065 723.572 742.536C723.162 741.007 721.59 740.099 720.061 740.509L642.54 761.281Z" fill="#444444"/>
<path d="M685.98 665.358C684.861 664.239 683.046 664.239 681.927 665.358C680.807 666.478 680.807 668.292 681.927 669.412L738.676 726.161C739.796 727.281 741.61 727.281 742.73 726.161C743.849 725.042 743.849 723.227 742.73 722.108L685.98 665.358Z" fill="black"/>
<path d="M685.935 667.582C686.345 666.053 685.438 664.482 683.909 664.072C682.379 663.662 680.808 664.57 680.398 666.099L659.626 743.62C659.217 745.149 660.124 746.721 661.653 747.13C663.182 747.54 664.754 746.633 665.164 745.104L685.935 667.582Z" fill="black"/>
<path d="M661.65 742.171C660.121 742.581 659.213 744.152 659.623 745.681C660.033 747.21 661.605 748.118 663.134 747.708L740.655 726.936C742.184 726.527 743.091 724.955 742.682 723.426C742.272 721.897 740.7 720.989 739.171 721.399L661.65 742.171Z" fill="black"/>
<path d="M6.37342 1319.97C5.25407 1318.85 3.4392 1318.85 2.31985 1319.97C1.2005 1321.09 1.20054 1322.9 2.31989 1324.02L59.0694 1380.77C60.1887 1381.89 62.0036 1381.89 63.1229 1380.77C64.2423 1379.65 64.2422 1377.84 63.1229 1376.72L6.37342 1319.97Z" fill="#444444"/>
<path d="M6.32453 1322.19C6.73424 1320.66 5.82684 1319.09 4.29778 1318.68C2.76872 1318.27 1.19702 1319.18 0.787313 1320.71L-19.9845 1398.23C-20.3942 1399.76 -19.4867 1401.33 -17.9577 1401.74C-16.4286 1402.15 -14.857 1401.24 -14.4472 1399.71L6.32453 1322.19Z" fill="#444444"/>
<path d="M-17.9576 1396.78C-19.4866 1397.19 -20.394 1398.76 -19.9843 1400.29C-19.5746 1401.82 -18.0029 1402.73 -16.4739 1402.32L61.0474 1381.55C62.5765 1381.14 63.4838 1379.56 63.0741 1378.04C62.6644 1376.51 61.0928 1375.6 59.5637 1376.01L-17.9576 1396.78Z" fill="#444444"/>
<path d="M25.4819 1300.86C24.3625 1299.74 22.5477 1299.74 21.4284 1300.86C20.309 1301.98 20.309 1303.79 21.4283 1304.91L78.1779 1361.66C79.2972 1362.78 81.1121 1362.78 82.2314 1361.66C83.3508 1360.54 83.3508 1358.73 82.2314 1357.61L25.4819 1300.86Z" fill="black"/>
<path d="M25.4331 1303.08C25.8428 1301.55 24.9354 1299.98 23.4063 1299.57C21.8772 1299.16 20.3055 1300.07 19.8958 1301.6L-0.875945 1379.12C-1.28566 1380.65 -0.378225 1382.22 1.15084 1382.63C2.6799 1383.04 4.25156 1382.13 4.66127 1380.6L25.4331 1303.08Z" fill="black"/>
<path d="M1.15094 1377.67C-0.378124 1378.08 -1.28559 1379.65 -0.87588 1381.18C-0.466169 1382.71 1.10557 1383.62 2.63463 1383.21L80.156 1362.44C81.685 1362.03 82.5924 1360.46 82.1827 1358.93C81.773 1357.4 80.2013 1356.49 78.6723 1356.9L1.15094 1377.67Z" fill="black"/>
<path d="M676.875 1955.47C675.756 1954.35 673.941 1954.35 672.822 1955.47C671.702 1956.59 671.702 1958.4 672.822 1959.52L729.571 2016.27C730.691 2017.39 732.505 2017.39 733.625 2016.27C734.744 2015.15 734.744 2013.34 733.625 2012.22L676.875 1955.47Z" fill="#444444"/>
<path d="M676.825 1957.69C677.235 1956.16 676.328 1954.59 674.799 1954.18C673.27 1953.77 671.698 1954.68 671.288 1956.21L650.516 2033.73C650.107 2035.26 651.014 2036.83 652.543 2037.24C654.072 2037.65 655.644 2036.74 656.054 2035.21L676.825 1957.69Z" fill="#444444"/>
<path d="M652.54 2032.28C651.011 2032.69 650.104 2034.26 650.513 2035.79C650.923 2037.32 652.495 2038.23 654.024 2037.82L731.545 2017.05C733.074 2016.64 733.981 2015.06 733.572 2013.54C733.162 2012.01 731.59 2011.1 730.061 2011.51L652.54 2032.28Z" fill="#444444"/>
<path d="M695.98 1936.36C694.861 1935.24 693.046 1935.24 691.927 1936.36C690.807 1937.48 690.807 1939.29 691.927 1940.41L748.676 1997.16C749.796 1998.28 751.611 1998.28 752.73 1997.16C753.849 1996.04 753.849 1994.23 752.73 1993.11L695.98 1936.36Z" fill="black"/>
<path d="M695.935 1938.58C696.345 1937.05 695.438 1935.48 693.909 1935.07C692.379 1934.66 690.808 1935.57 690.398 1937.1L669.626 2014.62C669.217 2016.15 670.124 2017.72 671.653 2018.13C673.182 2018.54 674.754 2017.63 675.164 2016.1L695.935 1938.58Z" fill="black"/>
<path d="M671.65 2013.17C670.121 2013.58 669.213 2015.15 669.623 2016.68C670.033 2018.21 671.604 2019.12 673.134 2018.71L750.655 1997.94C752.184 1997.53 753.091 1995.96 752.682 1994.43C752.272 1992.9 750.7 1991.99 749.171 1992.4L671.65 2013.17Z" fill="black"/>
<path d="M-3.62662 235.467C-4.74598 234.348 -6.5608 234.348 -7.68015 235.467C-8.7995 236.587 -8.7995 238.401 -7.68015 239.521L49.0694 296.27C50.1887 297.39 52.0036 297.39 53.1229 296.27C54.2423 295.151 54.2422 293.336 53.1229 292.217L-3.62662 235.467Z" fill="#444444"/>
<path d="M-27.9576 312.28C-29.4866 312.69 -30.394 314.261 -29.9843 315.79C-29.5746 317.319 -28.0029 318.227 -26.4739 317.817L51.0474 297.045C52.5765 296.636 53.4839 295.064 53.0742 293.535C52.6645 292.006 51.0928 291.098 49.5637 291.508L-27.9576 312.28Z" fill="#444444"/>
<path d="M15.482 216.359C14.3626 215.239 12.5478 215.239 11.4284 216.359C10.3091 217.478 10.3091 219.293 11.4284 220.412L68.178 277.162C69.2973 278.281 71.1121 278.281 72.2315 277.162C73.3508 276.042 73.3508 274.228 72.2315 273.108L15.482 216.359Z" fill="black"/>
<path d="M15.4331 218.584C15.8428 217.055 14.9354 215.484 13.4063 215.074C11.8772 214.664 10.3056 215.572 9.89585 217.101L-10.8759 294.622C-11.2856 296.151 -10.3782 297.723 -8.84916 298.132C-7.3201 298.542 -5.74841 297.635 -5.3387 296.106L15.4331 218.584Z" fill="black"/>
<path d="M-8.84906 293.171C-10.3781 293.581 -11.2855 295.153 -10.8758 296.682C-10.4661 298.211 -8.89443 299.118 -7.36537 298.709L70.1559 277.937C71.685 277.527 72.5924 275.955 72.1827 274.426C71.773 272.897 70.2013 271.99 68.6722 272.4L-8.84906 293.171Z" fill="black"/>
<path d="M696.259 108.324C695.721 107.787 694.85 107.787 694.313 108.324C693.776 108.861 693.776 109.733 694.313 110.27L721.553 137.51C722.09 138.047 722.961 138.047 723.498 137.51C724.036 136.972 724.036 136.101 723.498 135.564L696.259 108.324Z" fill="#444444"/>
<path d="M696.237 109.393C696.433 108.659 695.998 107.904 695.264 107.708C694.53 107.511 693.776 107.946 693.579 108.68L683.609 145.891C683.412 146.625 683.847 147.379 684.581 147.576C685.315 147.772 686.07 147.337 686.266 146.603L696.237 109.393Z" fill="#444444"/>
<path d="M684.582 145.194C683.848 145.391 683.412 146.145 683.609 146.879C683.806 147.613 684.56 148.049 685.294 147.852L722.504 137.881C723.238 137.685 723.674 136.93 723.477 136.196C723.28 135.463 722.526 135.027 721.792 135.224L684.582 145.194Z" fill="#444444"/>
<path d="M705.434 99.1522C704.896 98.6149 704.025 98.6148 703.488 99.1521C702.951 99.6894 702.951 100.561 703.488 101.098L730.728 128.338C731.265 128.875 732.136 128.875 732.673 128.338C733.211 127.8 733.211 126.929 732.673 126.392L705.434 99.1522Z" fill="black"/>
<path d="M705.407 100.221C705.603 99.4867 705.168 98.7323 704.434 98.5356C703.7 98.3389 702.946 98.7745 702.749 99.5084L692.778 136.719C692.582 137.453 693.017 138.207 693.751 138.404C694.485 138.6 695.24 138.165 695.436 137.431L705.407 100.221Z" fill="black"/>
<path d="M693.752 136.022C693.018 136.219 692.582 136.973 692.779 137.707C692.976 138.441 693.73 138.877 694.464 138.68L731.674 128.709C732.408 128.513 732.844 127.758 732.647 127.024C732.45 126.291 731.696 125.855 730.962 126.052L693.752 136.022Z" fill="black"/>
<path d="M8.25933 583.322C7.72204 582.785 6.8509 582.785 6.31361 583.322C5.77632 583.859 5.77635 584.731 6.31364 585.268L33.5533 612.508C34.0906 613.045 34.9617 613.045 35.499 612.508C36.0363 611.97 36.0363 611.099 35.499 610.562L8.25933 583.322Z" fill="#444444"/>
<path d="M8.23579 584.391C8.43246 583.657 7.99691 582.903 7.26296 582.706C6.52901 582.509 5.77459 582.945 5.57792 583.679L-4.3925 620.889C-4.58916 621.623 -4.1536 622.377 -3.41965 622.574C-2.6857 622.771 -1.93129 622.335 -1.73463 621.601L8.23579 584.391Z" fill="#444444"/>
<path d="M-3.41964 620.196C-4.15359 620.393 -4.58913 621.147 -4.39246 621.881C-4.1958 622.615 -3.44141 623.051 -2.70746 622.854L34.5027 612.884C35.2366 612.687 35.6722 611.932 35.4755 611.199C35.2788 610.465 34.5244 610.029 33.7905 610.226L-3.41964 620.196Z" fill="#444444"/>
<path d="M17.4313 574.152C16.8941 573.615 16.023 573.615 15.4857 574.152C14.9484 574.689 14.9484 575.56 15.4857 576.098L42.7254 603.338C43.2626 603.875 44.1338 603.875 44.6711 603.338C45.2084 602.8 45.2083 601.929 44.6711 601.392L17.4313 574.152Z" fill="black"/>
<path d="M17.4079 575.221C17.6045 574.487 17.169 573.733 16.435 573.536C15.7011 573.339 14.9467 573.775 14.75 574.509L4.77956 611.719C4.58289 612.453 5.01846 613.207 5.75241 613.404C6.48636 613.601 7.24077 613.165 7.43743 612.431L17.4079 575.221Z" fill="black"/>
<path d="M5.75242 611.021C5.01847 611.218 4.58287 611.972 4.77953 612.706C4.97619 613.44 5.73064 613.876 6.46459 613.679L43.6747 603.708C44.4087 603.512 44.8442 602.757 44.6476 602.023C44.4509 601.29 43.6965 600.854 42.9626 601.051L5.75242 611.021Z" fill="black"/>
<path d="M691.258 1526.32C690.721 1525.78 689.85 1525.78 689.313 1526.32C688.776 1526.86 688.776 1527.73 689.313 1528.27L716.553 1555.51C717.09 1556.04 717.961 1556.04 718.498 1555.51C719.036 1554.97 719.035 1554.1 718.498 1553.56L691.258 1526.32Z" fill="#444444"/>
<path d="M691.237 1527.39C691.433 1526.66 690.998 1525.9 690.264 1525.71C689.53 1525.51 688.776 1525.94 688.579 1526.68L678.608 1563.89C678.412 1564.62 678.847 1565.38 679.581 1565.57C680.315 1565.77 681.07 1565.34 681.266 1564.6L691.237 1527.39Z" fill="#444444"/>
<path d="M679.582 1563.2C678.848 1563.39 678.412 1564.15 678.609 1564.88C678.806 1565.61 679.56 1566.05 680.294 1565.85L717.504 1555.88C718.238 1555.69 718.674 1554.93 718.477 1554.2C718.28 1553.46 717.526 1553.03 716.792 1553.23L679.582 1563.2Z" fill="#444444"/>
<path d="M700.434 1517.15C699.896 1516.61 699.025 1516.61 698.488 1517.15C697.951 1517.69 697.951 1518.56 698.488 1519.1L725.728 1546.34C726.265 1546.87 727.136 1546.87 727.673 1546.34C728.211 1545.8 728.211 1544.93 727.673 1544.39L700.434 1517.15Z" fill="black"/>
<path d="M700.407 1518.22C700.603 1517.49 700.168 1516.73 699.434 1516.54C698.7 1516.34 697.946 1516.77 697.749 1517.51L687.778 1554.72C687.582 1555.45 688.017 1556.21 688.751 1556.4C689.485 1556.6 690.24 1556.17 690.436 1555.43L700.407 1518.22Z" fill="black"/>
<path d="M688.752 1554.02C688.018 1554.22 687.582 1554.97 687.779 1555.71C687.976 1556.44 688.73 1556.88 689.464 1556.68L726.674 1546.71C727.408 1546.51 727.844 1545.76 727.647 1545.02C727.45 1544.29 726.696 1543.85 725.962 1544.05L688.752 1554.02Z" fill="black"/>
<path d="M358.177 311.196C356.52 308.326 352.85 307.343 349.981 309C347.111 310.657 346.128 314.326 347.784 317.196L371.784 358.765C373.441 361.635 377.111 362.618 379.981 360.962C382.85 359.305 383.834 355.635 382.177 352.765L358.177 311.196Z" fill="#999999"/>
<path d="M341.196 341.785C338.326 343.442 337.343 347.111 339 349.981C340.657 352.851 344.326 353.834 347.196 352.177L388.765 328.177C391.635 326.52 392.618 322.851 390.962 319.981C389.305 317.111 385.635 316.128 382.765 317.785L341.196 341.785Z" fill="#999999"/>
<path d="M360.548 308.903C359.112 306.416 355.932 305.564 353.445 307C350.958 308.436 350.106 311.616 351.541 314.103L372.342 350.13C373.777 352.617 376.958 353.469 379.445 352.033C381.932 350.597 382.784 347.417 381.348 344.93L360.548 308.903Z" fill="black"/>
<path d="M345.831 335.413C343.344 336.849 342.492 340.03 343.928 342.517C345.364 345.004 348.544 345.856 351.031 344.42L387.058 323.62C389.545 322.184 390.397 319.004 388.961 316.517C387.525 314.03 384.345 313.177 381.858 314.613L345.831 335.413Z" fill="black"/>
<path d="M12.6769 1040.7C11.0201 1037.83 7.35052 1036.84 4.48076 1038.5C1.611 1040.16 0.627753 1043.83 2.28461 1046.7L26.2846 1088.27C27.9415 1091.14 31.611 1092.12 34.4808 1090.46C37.3505 1088.8 38.3338 1085.14 36.6769 1082.27L12.6769 1040.7Z" fill="#999999"/>
<path d="M-4.30379 1071.28C-7.17354 1072.94 -8.15679 1076.61 -6.49994 1079.48C-4.84308 1082.35 -1.17354 1083.33 1.69621 1081.67L43.2654 1057.67C46.1352 1056.02 47.1184 1052.35 45.4616 1049.48C43.8047 1046.61 40.1352 1045.63 37.2654 1047.28L-4.30379 1071.28Z" fill="#999999"/>
<path d="M15.0482 1038.4C13.6123 1035.92 10.432 1035.06 7.94486 1036.5C5.45774 1037.94 4.60562 1041.12 6.04156 1043.6L26.8416 1079.63C28.2775 1082.12 31.4577 1082.97 33.9449 1081.53C36.432 1080.1 37.2842 1076.92 35.8482 1074.43L15.0482 1038.4Z" fill="black"/>
<path d="M0.331488 1064.91C-2.15563 1066.35 -3.00774 1069.53 -1.5718 1072.02C-0.135861 1074.5 3.04437 1075.36 5.53149 1073.92L41.5581 1053.12C44.0452 1051.68 44.8975 1048.5 43.4615 1046.02C42.0256 1043.53 38.8452 1042.68 36.3581 1044.11L0.331488 1064.91Z" fill="black"/>
<path d="M10.6769 1760.7C9.02006 1757.83 5.35052 1756.84 2.48076 1758.5C-0.388996 1760.16 -1.37225 1763.83 0.284607 1766.7L24.2846 1808.27C25.9415 1811.14 29.611 1812.12 32.4808 1810.46C35.3505 1808.8 36.3338 1805.14 34.6769 1802.27L10.6769 1760.7Z" fill="#999999"/>
<path d="M-6.30379 1791.28C-9.17354 1792.94 -10.1568 1796.61 -8.49994 1799.48C-6.84308 1802.35 -3.17354 1803.33 -0.303786 1801.67L41.2654 1777.67C44.1352 1776.02 45.1184 1772.35 43.4616 1769.48C41.8047 1766.61 38.1352 1765.63 35.2654 1767.28L-6.30379 1791.28Z" fill="#999999"/>
<path d="M13.0482 1758.4C11.6123 1755.92 8.43198 1755.06 5.94486 1756.5C3.45774 1757.94 2.60562 1761.12 4.04156 1763.6L24.8416 1799.63C26.2775 1802.12 29.4577 1802.97 31.9449 1801.53C34.432 1800.1 35.2842 1796.92 33.8482 1794.43L13.0482 1758.4Z" fill="black"/>
<path d="M-1.66851 1784.91C-4.15563 1786.35 -5.00774 1789.53 -3.5718 1792.02C-2.13586 1794.5 1.04437 1795.36 3.53149 1793.92L39.5581 1773.12C42.0452 1771.68 42.8975 1768.5 41.4615 1766.02C40.0256 1763.53 36.8452 1762.68 34.3581 1764.11L-1.66851 1784.91Z" fill="black"/>
<path d="M159.515 328.618L125.707 337.676C125.041 337.855 124.645 338.541 124.824 339.207C125.002 339.874 125.688 340.27 126.354 340.091L160.162 331.033C160.829 330.854 161.224 330.169 161.046 329.502C160.867 328.835 160.182 328.439 159.515 328.618Z" fill="#363636"/>
<path d="M168.573 362.425L134.766 371.484C134.099 371.663 133.703 372.348 133.882 373.015C134.061 373.682 134.746 374.077 135.413 373.899L169.22 364.84C169.887 364.661 170.283 363.976 170.104 363.309C169.926 362.642 169.24 362.247 168.573 362.425Z" fill="#363636"/>
<path d="M124.823 339.207L133.882 373.015C134.061 373.681 134.746 374.077 135.413 373.898C136.08 373.72 136.475 373.034 136.297 372.368L127.238 338.56C127.059 337.893 126.374 337.498 125.707 337.676C125.04 337.855 124.645 338.54 124.823 339.207Z" fill="#363636"/>
<path d="M158.631 330.149L167.69 363.956C167.868 364.623 168.554 365.019 169.22 364.84C169.887 364.661 170.283 363.976 170.104 363.309L161.046 329.502C160.867 328.835 160.182 328.439 159.515 328.618C158.848 328.796 158.452 329.482 158.631 330.149Z" fill="#363636"/>
<path d="M164.515 323.823L130.707 332.882C130.041 333.061 129.645 333.746 129.824 334.413C130.002 335.08 130.688 335.475 131.354 335.297L165.162 326.238C165.829 326.059 166.224 325.374 166.046 324.707C165.867 324.04 165.182 323.645 164.515 323.823Z" fill="black"/>
<path d="M173.573 357.631L139.766 366.689C139.099 366.868 138.703 367.554 138.882 368.22C139.061 368.887 139.746 369.283 140.413 369.104L174.22 360.046C174.887 359.867 175.283 359.182 175.104 358.515C174.926 357.848 174.24 357.452 173.573 357.631Z" fill="black"/>
<path d="M129.823 334.413L138.882 368.221C139.061 368.887 139.746 369.283 140.413 369.104C141.08 368.926 141.475 368.24 141.297 367.574L132.238 333.766C132.059 333.099 131.374 332.704 130.707 332.882C130.04 333.061 129.645 333.746 129.823 334.413Z" fill="black"/>
<path d="M163.631 325.355L172.689 359.162C172.868 359.829 173.554 360.225 174.22 360.046C174.887 359.867 175.283 359.182 175.104 358.515L166.046 324.708C165.867 324.041 165.182 323.645 164.515 323.824C163.848 324.002 163.452 324.688 163.631 325.355Z" fill="black"/>
<path d="M38.0651 831.538L-11.7219 844.879C-12.7039 845.142 -13.2867 846.151 -13.0235 847.133C-12.7604 848.115 -11.751 848.698 -10.769 848.435L39.018 835.094C40.0001 834.831 40.5828 833.822 40.3197 832.84C40.0566 831.858 39.0472 831.275 38.0651 831.538Z" fill="#363636"/>
<path d="M51.4056 881.323L1.61856 894.664C0.636541 894.927 0.0537611 895.936 0.316893 896.918C0.580026 897.9 1.58942 898.483 2.57144 898.22L52.3585 884.879C53.3405 884.616 53.9233 883.607 53.6601 882.625C53.397 881.643 52.3876 881.06 51.4056 881.323Z" fill="#363636"/>
<path d="M-13.0235 847.13L0.316892 896.917C0.580024 897.899 1.58941 898.482 2.57143 898.219C3.55345 897.955 4.13622 896.946 3.87308 895.964L-9.46731 846.177C-9.73044 845.195 -10.7398 844.612 -11.7219 844.875C-12.7039 845.138 -13.2866 846.148 -13.0235 847.13Z" fill="#363636"/>
<path d="M36.7637 833.79L50.1041 883.577C50.3672 884.559 51.3766 885.142 52.3587 884.879C53.3407 884.615 53.9234 883.606 53.6603 882.624L40.3199 832.837C40.0568 831.855 39.0474 831.272 38.0654 831.535C37.0834 831.798 36.5005 832.808 36.7637 833.79Z" fill="#363636"/>
<path d="M45.4285 824.478L-4.35855 837.819C-5.34057 838.082 -5.92333 839.091 -5.6602 840.073C-5.39707 841.055 -4.38768 841.638 -3.40565 841.375L46.3814 828.034C47.3634 827.771 47.9462 826.762 47.6831 825.78C47.4199 824.798 46.4105 824.215 45.4285 824.478Z" fill="black"/>
<path d="M58.7689 874.263L8.98185 887.604C7.99982 887.867 7.41704 888.876 7.68017 889.858C7.94331 890.84 8.9527 891.423 9.93472 891.16L59.7218 877.819C60.7038 877.556 61.2866 876.547 61.0234 875.565C60.7603 874.583 59.7509 874 58.7689 874.263Z" fill="black"/>
<path d="M-5.66016 840.07L7.68023 889.857C7.94337 890.839 8.95275 891.422 9.93477 891.159C10.9168 890.895 11.4996 889.886 11.2364 888.904L-2.10397 839.117C-2.3671 838.135 -3.37649 837.552 -4.35851 837.815C-5.34053 838.078 -5.92329 839.088 -5.66016 840.07Z" fill="black"/>
<path d="M44.1271 826.73L57.4675 876.517C57.7307 877.499 58.7401 878.082 59.7221 877.819C60.7041 877.555 61.2869 876.546 61.0238 875.564L47.6834 825.777C47.4202 824.795 46.4109 824.212 45.4288 824.475C44.4468 824.738 43.864 825.748 44.1271 826.73Z" fill="black"/>
<path d="M710.565 1264.04L660.778 1277.38C659.796 1277.64 659.213 1278.65 659.476 1279.63C659.74 1280.62 660.749 1281.2 661.731 1280.93L711.518 1267.59C712.5 1267.33 713.083 1266.32 712.82 1265.34C712.557 1264.36 711.547 1263.78 710.565 1264.04Z" fill="#363636"/>
<path d="M723.905 1313.82L674.118 1327.16C673.136 1327.43 672.553 1328.44 672.816 1329.42C673.08 1330.4 674.089 1330.98 675.071 1330.72L724.858 1317.38C725.84 1317.12 726.423 1316.11 726.16 1315.12C725.897 1314.14 724.887 1313.56 723.905 1313.82Z" fill="#363636"/>
<path d="M659.478 1279.63L672.819 1329.42C673.082 1330.4 674.091 1330.98 675.073 1330.72C676.055 1330.46 676.638 1329.45 676.375 1328.46L663.034 1278.68C662.771 1277.69 661.762 1277.11 660.78 1277.38C659.798 1277.64 659.215 1278.65 659.478 1279.63Z" fill="#363636"/>
<path d="M709.263 1266.29L722.603 1316.08C722.867 1317.06 723.876 1317.64 724.858 1317.38C725.84 1317.12 726.423 1316.11 726.16 1315.12L712.819 1265.34C712.556 1264.36 711.547 1263.77 710.565 1264.04C709.583 1264.3 709 1265.31 709.263 1266.29Z" fill="#363636"/>
<path d="M717.93 1256.98L668.143 1270.32C667.161 1270.58 666.578 1271.59 666.841 1272.57C667.105 1273.56 668.114 1274.14 669.096 1273.87L718.883 1260.53C719.865 1260.27 720.448 1259.26 720.185 1258.28C719.922 1257.3 718.912 1256.72 717.93 1256.98Z" fill="black"/>
<path d="M731.27 1306.76L681.483 1320.1C680.501 1320.37 679.918 1321.38 680.181 1322.36L680.181 1322.36C680.445 1323.34 681.454 1323.92 682.436 1323.66L732.223 1310.32C733.205 1310.06 733.788 1309.05 733.525 1308.06L733.525 1308.06C733.262 1307.08 732.252 1306.5 731.27 1306.76Z" fill="black"/>
<path d="M666.838 1272.57L680.179 1322.36C680.442 1323.34 681.451 1323.92 682.433 1323.66C683.415 1323.4 683.998 1322.39 683.735 1321.4L670.394 1271.62C670.131 1270.64 669.122 1270.05 668.14 1270.32C667.158 1270.58 666.575 1271.59 666.838 1272.57Z" fill="black"/>
<path d="M716.628 1259.23L729.969 1309.02C730.232 1310 731.241 1310.58 732.223 1310.32C733.205 1310.06 733.788 1309.05 733.525 1308.06L720.184 1258.28C719.921 1257.29 718.912 1256.71 717.93 1256.98C716.948 1257.24 716.365 1258.25 716.628 1259.23Z" fill="black"/>
<mask id="mask0_1_2" style="mask-type:alpha" maskUnits="userSpaceOnUse" x="646" y="10" width="65" height="58">
<path d="M655.435 65.5635C650.86 60.985 647.765 55.1335 646.56 48.7713C645.36 42.4093 646.1 35.8322 648.69 29.8976C651.28 23.963 655.595 18.9462 661.075 15.5015C666.56 12.0567 672.955 10.3437 679.425 10.5859C685.895 10.8281 692.14 13.0142 697.35 16.8592C702.56 20.7042 706.49 26.0297 708.63 32.1413C710.765 38.2529 711.015 44.8669 709.34 51.121C707.665 57.3755 704.14 62.9795 699.235 67.203L684.465 50.039C685.92 48.7841 686.97 47.1186 687.465 45.26C687.965 43.4014 687.89 41.4358 687.255 39.6195C686.62 37.8033 685.45 36.2207 683.905 35.078C682.355 33.9353 680.5 33.2857 678.575 33.2137C676.655 33.1417 674.755 33.6508 673.125 34.6745C671.495 35.6982 670.21 37.1891 669.445 38.9528C668.675 40.7164 668.455 42.671 668.81 44.5617C669.17 46.4524 670.085 48.1914 671.45 49.552L655.435 65.5635Z" fill="white"/>
</mask>
<g mask="url(#mask0_1_2)">
<path d="M655.435 65.5635C650.86 60.985 647.765 55.1335 646.56 48.7713C645.36 42.4093 646.1 35.8322 648.69 29.8976C651.28 23.963 655.595 18.9462 661.075 15.5015C666.56 12.0567 672.955 10.3437 679.425 10.5859C685.895 10.8281 692.14 13.0142 697.35 16.8592C702.56 20.7042 706.49 26.0297 708.63 32.1413C710.765 38.2529 711.015 44.8669 709.34 51.121C707.665 57.3755 704.14 62.9795 699.235 67.203L684.465 50.039C685.92 48.7841 686.97 47.1186 687.465 45.26C687.965 43.4014 687.89 41.4358 687.255 39.6195C686.62 37.8033 685.45 36.2207 683.905 35.078C682.355 33.9353 680.5 33.2857 678.575 33.2137C676.655 33.1417 674.755 33.6508 673.125 34.6745C671.495 35.6982 670.21 37.1891 669.445 38.9528C668.675 40.7164 668.455 42.671 668.81 44.5617C669.17 46.4524 670.085 48.1914 671.45 49.552L655.435 65.5635Z" stroke="#C4C4C4" stroke-width="10"/>
</g>
<mask id="mask1_1_2" style="mask-type:alpha" maskUnits="userSpaceOnUse" x="656" y="0" width="66" height="57">
<path d="M666 55C661.42 50.4215 658.33 44.57 657.125 38.208C655.92 31.846 656.66 25.2689 659.25 19.3343C661.84 13.3997 666.16 8.38291 671.64 4.93811C677.125 1.49333 683.515 -0.21964 689.985 0.0225547C696.455 0.26475 702.705 2.45087 707.915 6.29586C713.125 10.1409 717.055 15.4664 719.19 21.5779C721.33 27.6895 721.58 34.3036 719.9 40.5578C718.225 46.812 714.705 52.416 709.795 56.6395L695.025 39.4759C696.485 38.2208 697.53 36.5553 698.03 34.6967C698.53 32.838 698.455 30.8725 697.82 29.0562C697.185 27.24 696.015 25.6573 694.465 24.5147C692.92 23.372 691.065 22.7223 689.14 22.6503C687.215 22.5784 685.315 23.0874 683.69 24.1112C682.06 25.1349 680.775 26.6258 680.005 28.3894C679.235 30.1531 679.015 32.1077 679.375 33.9983C679.73 35.889 680.65 37.628 682.01 38.9887L666 55Z" fill="white"/>
</mask>
<g mask="url(#mask1_1_2)">
<path d="M666 55C661.42 50.4215 658.33 44.57 657.125 38.208C655.92 31.846 656.66 25.2689 659.25 19.3343C661.84 13.3997 666.16 8.38291 671.64 4.93811C677.125 1.49333 683.515 -0.21964 689.985 0.0225547C696.455 0.26475 702.705 2.45087 707.915 6.29586C713.125 10.1409 717.055 15.4664 719.19 21.5779C721.33 27.6895 721.58 34.3036 719.9 40.5578C718.225 46.812 714.705 52.416 709.795 56.6395L695.025 39.4759C696.485 38.2208 697.53 36.5553 698.03 34.6967C698.53 32.838 698.455 30.8725 697.82 29.0562C697.185 27.24 696.015 25.6573 694.465 24.5147C692.92 23.372 691.065 22.7223 689.14 22.6503C687.215 22.5784 685.315 23.0874 683.69 24.1112C682.06 25.1349 680.775 26.6258 680.005 28.3894C679.235 30.1531 679.015 32.1077 679.375 33.9983C679.73 35.889 680.65 37.628 682.01 38.9887L666 55Z" stroke="black" stroke-width="10"/>
</g>
<mask id="mask2_1_2" style="mask-type:alpha" maskUnits="userSpaceOnUse" x="583" y="297" width="65" height="58">
<path d="M592.935 352.564C588.36 347.985 585.265 342.134 584.06 335.772C582.86 329.41 583.6 322.832 586.19 316.897C588.78 310.963 593.095 305.946 598.575 302.501C604.06 299.056 610.455 297.343 616.925 297.586C623.395 297.828 629.64 300.014 634.85 303.859C640.06 307.704 643.99 313.03 646.13 319.142C648.265 325.253 648.515 331.867 646.84 338.121C645.165 344.376 641.64 349.98 636.735 354.203L621.965 337.039C623.42 335.784 624.47 334.119 624.965 332.26C625.465 330.402 625.39 328.436 624.755 326.62C624.12 324.804 622.95 323.221 621.405 322.078C619.855 320.935 618 320.285 616.075 320.213C614.155 320.141 612.255 320.651 610.625 321.674C608.995 322.698 607.71 324.189 606.945 325.953C606.175 327.717 605.955 329.671 606.31 331.561C606.67 333.452 607.585 335.191 608.95 336.552L592.935 352.564Z" fill="white"/>
</mask>
<g mask="url(#mask2_1_2)">
<path d="M592.935 352.564C588.36 347.985 585.265 342.134 584.06 335.772C582.86 329.41 583.6 322.832 586.19 316.897C588.78 310.963 593.095 305.946 598.575 302.501C604.06 299.056 610.455 297.343 616.925 297.586C623.395 297.828 629.64 300.014 634.85 303.859C640.06 307.704 643.99 313.03 646.13 319.142C648.265 325.253 648.515 331.867 646.84 338.121C645.165 344.376 641.64 349.98 636.735 354.203L621.965 337.039C623.42 335.784 624.47 334.119 624.965 332.26C625.465 330.402 625.39 328.436 624.755 326.62C624.12 324.804 622.95 323.221 621.405 322.078C619.855 320.935 618 320.285 616.075 320.213C614.155 320.141 612.255 320.651 610.625 321.674C608.995 322.698 607.71 324.189 606.945 325.953C606.175 327.717 605.955 329.671 606.31 331.561C606.67 333.452 607.585 335.191 608.95 336.552L592.935 352.564Z" stroke="#C4C4C4" stroke-width="10"/>
</g>
<mask id="mask3_1_2" style="mask-type:alpha" maskUnits="userSpaceOnUse" x="594" y="287" width="65" height="57">
<path d="M603.5 342C598.92 337.422 595.83 331.57 594.625 325.208C593.42 318.846 594.16 312.269 596.75 306.335C599.34 300.4 603.66 295.383 609.14 291.938C614.625 288.493 621.015 286.78 627.485 287.022C633.955 287.264 640.205 289.451 645.415 293.296C650.625 297.141 654.555 302.467 656.69 308.578C658.83 314.69 659.08 321.304 657.4 327.558C655.725 333.812 652.205 339.416 647.295 343.639L632.525 326.476C633.985 325.221 635.03 323.556 635.53 321.697C636.03 319.838 635.955 317.872 635.32 316.056C634.685 314.24 633.515 312.657 631.965 311.514C630.42 310.372 628.565 309.723 626.64 309.651C624.715 309.579 622.815 310.087 621.19 311.111C619.56 312.135 618.275 313.626 617.505 315.389C616.735 317.153 616.515 319.108 616.875 320.999C617.23 322.889 618.15 324.628 619.51 325.988L603.5 342Z" fill="white"/>
</mask>
<g mask="url(#mask3_1_2)">
<path d="M603.5 342C598.92 337.422 595.83 331.57 594.625 325.208C593.42 318.846 594.16 312.269 596.75 306.335C599.34 300.4 603.66 295.383 609.14 291.938C614.625 288.493 621.015 286.78 627.485 287.022C633.955 287.264 640.205 289.451 645.415 293.296C650.625 297.141 654.555 302.467 656.69 308.578C658.83 314.69 659.08 321.304 657.4 327.558C655.725 333.812 652.205 339.416 647.295 343.639L632.525 326.476C633.985 325.221 635.03 323.556 635.53 321.697C636.03 319.838 635.955 317.872 635.32 316.056C634.685 314.24 633.515 312.657 631.965 311.514C630.42 310.372 628.565 309.723 626.64 309.651C624.715 309.579 622.815 310.087 621.19 311.111C619.56 312.135 618.275 313.626 617.505 315.389C616.735 317.153 616.515 319.108 616.875 320.999C617.23 322.889 618.15 324.628 619.51 325.988L603.5 342Z" stroke="black" stroke-width="10"/>
</g>
<mask id="mask4_1_2" style="mask-type:alpha" maskUnits="userSpaceOnUse" x="358" y="693" width="65" height="58">
<path d="M367.937 748.565C363.358 743.985 360.266 738.135 359.062 731.77C357.858 725.41 358.599 718.83 361.189 712.9C363.778 706.965 368.095 701.945 373.578 698.5C379.06 695.055 385.453 693.345 391.924 693.585C398.394 693.83 404.641 696.015 409.851 699.86C415.061 703.705 418.991 709.03 421.129 715.14C423.268 721.255 423.515 727.865 421.839 734.12C420.163 740.375 416.641 745.98 411.733 750.205L396.964 733.04C398.422 731.785 399.468 730.12 399.966 728.26C400.465 726.4 400.392 724.435 399.756 722.62C399.121 720.805 397.952 719.22 396.404 718.08C394.856 716.935 393 716.285 391.077 716.215C389.154 716.14 387.254 716.65 385.625 717.675C383.995 718.7 382.712 720.19 381.943 721.955C381.173 723.715 380.953 725.67 381.31 727.56C381.668 729.45 382.588 731.19 383.948 732.55L367.937 748.565Z" fill="white"/>
</mask>
<g mask="url(#mask4_1_2)">
<path d="M367.937 748.565C363.358 743.985 360.266 738.135 359.062 731.77C357.858 725.41 358.599 718.83 361.189 712.9C363.778 706.965 368.095 701.945 373.578 698.5C379.06 695.055 385.453 693.345 391.924 693.585C398.394 693.83 404.641 696.015 409.851 699.86C415.061 703.705 418.991 709.03 421.129 715.14C423.268 721.255 423.515 727.865 421.839 734.12C420.163 740.375 416.641 745.98 411.733 750.205L396.964 733.04C398.422 731.785 399.468 730.12 399.966 728.26C400.465 726.4 400.392 724.435 399.756 722.62C399.121 720.805 397.952 719.22 396.404 718.08C394.856 716.935 393 716.285 391.077 716.215C389.154 716.14 387.254 716.65 385.625 717.675C383.995 718.7 382.712 720.19 381.943 721.955C381.173 723.715 380.953 725.67 381.31 727.56C381.668 729.45 382.588 731.19 383.948 732.55L367.937 748.565Z" stroke="#C4C4C4" stroke-width="10"/>
</g>
<mask id="mask5_1_2" style="mask-type:alpha" maskUnits="userSpaceOnUse" x="369" y="683" width="65" height="57">
<path d="M378.5 738C373.921 733.42 370.829 727.57 369.625 721.21C368.421 714.845 369.162 708.27 371.751 702.335C374.341 696.4 378.658 691.385 384.141 687.94C389.623 684.495 396.016 682.78 402.487 683.025C408.957 683.265 415.205 685.45 420.414 689.295C425.624 693.14 429.554 698.465 431.692 704.58C433.831 710.69 434.078 717.305 432.402 723.56C430.726 729.81 427.205 735.415 422.297 739.64L407.527 722.475C408.986 721.22 410.032 719.555 410.53 717.695C411.028 715.84 410.955 713.87 410.319 712.055C409.684 710.24 408.516 708.655 406.968 707.515C405.42 706.37 403.563 705.72 401.64 705.65C399.717 705.58 397.817 706.085 396.187 707.11C394.558 708.135 393.276 709.625 392.506 711.39C391.737 713.155 391.516 715.11 391.874 717C392.231 718.89 393.15 720.63 394.512 721.99L378.5 738Z" fill="white"/>
</mask>
<g mask="url(#mask5_1_2)">
<path d="M378.5 738C373.921 733.42 370.829 727.57 369.625 721.21C368.421 714.845 369.162 708.27 371.751 702.335C374.341 696.4 378.658 691.385 384.141 687.94C389.623 684.495 396.016 682.78 402.487 683.025C408.957 683.265 415.205 685.45 420.414 689.295C425.624 693.14 429.554 698.465 431.692 704.58C433.831 710.69 434.078 717.305 432.402 723.56C430.726 729.81 427.205 735.415 422.297 739.64L407.527 722.475C408.986 721.22 410.032 719.555 410.53 717.695C411.028 715.84 410.955 713.87 410.319 712.055C409.684 710.24 408.516 708.655 406.968 707.515C405.42 706.37 403.563 705.72 401.64 705.65C399.717 705.58 397.817 706.085 396.187 707.11C394.558 708.135 393.276 709.625 392.506 711.39C391.737 713.155 391.516 715.11 391.874 717C392.231 718.89 393.15 720.63 394.512 721.99L378.5 738Z" stroke="black" stroke-width="10"/>
</g>
<mask id="mask6_1_2" style="mask-type:alpha" maskUnits="userSpaceOnUse" x="58" y="2002" width="65" height="57">
<path d="M67.9365 2057.06C63.358 2052.48 60.2655 2046.64 59.0615 2040.27C57.858 2033.91 58.599 2027.33 61.1885 2021.4C63.7775 2015.47 68.095 2010.44 73.5775 2007C79.06 2003.55 85.453 2001.84 91.9235 2002.08C98.394 2002.33 104.641 2004.51 109.85 2008.36C115.06 2012.2 118.99 2017.53 121.129 2023.64C123.267 2029.76 123.514 2036.36 121.838 2042.62C120.162 2048.87 116.641 2054.48 111.733 2058.71L96.9635 2041.54C98.422 2040.29 99.4685 2038.62 99.9665 2036.76C100.465 2034.9 100.391 2032.93 99.756 2031.12C99.1205 2029.3 97.9525 2027.72 96.404 2026.58C94.856 2025.43 92.9995 2024.78 91.0765 2024.71C89.1535 2024.64 87.2535 2025.15 85.6245 2026.18C83.995 2027.2 82.712 2028.69 81.9425 2030.45C81.173 2032.21 80.953 2034.17 81.3105 2036.06C81.6685 2037.95 82.5875 2039.69 83.948 2041.05L67.9365 2057.06Z" fill="white"/>
</mask>
<g mask="url(#mask6_1_2)">
<path d="M67.9365 2057.06C63.358 2052.48 60.2655 2046.64 59.0615 2040.27C57.858 2033.91 58.599 2027.33 61.1885 2021.4C63.7775 2015.47 68.095 2010.44 73.5775 2007C79.06 2003.55 85.453 2001.84 91.9235 2002.08C98.394 2002.33 104.641 2004.51 109.85 2008.36C115.06 2012.2 118.99 2017.53 121.129 2023.64C123.267 2029.76 123.514 2036.36 121.838 2042.62C120.162 2048.87 116.641 2054.48 111.733 2058.71L96.9635 2041.54C98.422 2040.29 99.4685 2038.62 99.9665 2036.76C100.465 2034.9 100.391 2032.93 99.756 2031.12C99.1205 2029.3 97.9525 2027.72 96.404 2026.58C94.856 2025.43 92.9995 2024.78 91.0765 2024.71C89.1535 2024.64 87.2535 2025.15 85.6245 2026.18C83.995 2027.2 82.712 2028.69 81.9425 2030.45C81.173 2032.21 80.953 2034.17 81.3105 2036.06C81.6685 2037.95 82.5875 2039.69 83.948 2041.05L67.9365 2057.06Z" stroke="#C4C4C4" stroke-width="10"/>
</g>
<mask id="mask7_1_2" style="mask-type:alpha" maskUnits="userSpaceOnUse" x="69" y="1991" width="65" height="58">
<path d="M78.5 2046.5C73.9215 2041.92 70.829 2036.07 69.625 2029.71C68.4215 2023.34 69.1625 2016.77 71.7515 2010.83C74.341 2004.9 78.6585 1999.88 84.141 1996.44C89.6235 1992.99 96.0165 1991.28 102.487 1991.52C108.957 1991.76 115.205 1993.95 120.414 1997.8C125.624 2001.64 129.554 2006.96 131.692 2013.08C133.831 2019.19 134.078 2025.81 132.402 2032.06C130.726 2038.31 127.205 2043.91 122.297 2048.14L107.527 2030.97C108.986 2029.72 110.032 2028.05 110.53 2026.19C111.028 2024.34 110.955 2022.37 110.319 2020.56C109.684 2018.74 108.516 2017.15 106.968 2016.01C105.42 2014.87 103.563 2014.22 101.64 2014.15C99.717 2014.08 97.817 2014.58 96.1875 2015.61C94.5585 2016.63 93.2755 2018.12 92.506 2019.89C91.7365 2021.65 91.516 2023.61 91.874 2025.5C92.2315 2027.39 93.1505 2029.13 94.5115 2030.49L78.5 2046.5Z" fill="white"/>
</mask>
<g mask="url(#mask7_1_2)">
<path d="M78.5 2046.5C73.9215 2041.92 70.829 2036.07 69.625 2029.71C68.4215 2023.34 69.1625 2016.77 71.7515 2010.83C74.341 2004.9 78.6585 1999.88 84.141 1996.44C89.6235 1992.99 96.0165 1991.28 102.487 1991.52C108.957 1991.76 115.205 1993.95 120.414 1997.8C125.624 2001.64 129.554 2006.96 131.692 2013.08C133.831 2019.19 134.078 2025.81 132.402 2032.06C130.726 2038.31 127.205 2043.91 122.297 2048.14L107.527 2030.97C108.986 2029.72 110.032 2028.05 110.53 2026.19C111.028 2024.34 110.955 2022.37 110.319 2020.56C109.684 2018.74 108.516 2017.15 106.968 2016.01C105.42 2014.87 103.563 2014.22 101.64 2014.15C99.717 2014.08 97.817 2014.58 96.1875 2015.61C94.5585 2016.63 93.2755 2018.12 92.506 2019.89C91.7365 2021.65 91.516 2023.61 91.874 2025.5C92.2315 2027.39 93.1505 2029.13 94.5115 2030.49L78.5 2046.5Z" stroke="black" stroke-width="10"/>
</g>
</g>
<g style="mix-blend-mode:exclusion" clip-path="url(#clip2_1_2)">
<path d="M540.875 515.468C539.756 514.349 537.941 514.349 536.822 515.468C535.702 516.588 535.702 518.402 536.822 519.522L593.571 576.271C594.691 577.391 596.505 577.391 597.625 576.271C598.744 575.152 598.744 573.337 597.625 572.218L540.875 515.468Z" fill="#444444"/>
<path d="M540.825 517.692C541.235 516.163 540.328 514.592 538.799 514.182C537.27 513.772 535.698 514.68 535.288 516.209L514.516 593.73C514.107 595.259 515.014 596.831 516.543 597.24C518.072 597.65 519.644 596.743 520.054 595.214L540.825 517.692Z" fill="#444444"/>
<path d="M516.54 592.281C515.011 592.691 514.103 594.262 514.513 595.791C514.923 597.32 516.495 598.228 518.024 597.818L595.545 577.046C597.074 576.637 597.981 575.065 597.572 573.536C597.162 572.007 595.59 571.099 594.061 571.509L516.54 592.281Z" fill="#444444"/>
<path d="M559.98 496.358C558.861 495.239 557.046 495.239 555.927 496.358C554.807 497.478 554.807 499.292 555.927 500.412L612.676 557.161C613.796 558.281 615.61 558.281 616.73 557.161C617.849 556.042 617.849 554.227 616.73 553.108L559.98 496.358Z" fill="black"/>
<path d="M559.935 498.582C560.345 497.053 559.438 495.482 557.909 495.072C556.379 494.662 554.808 495.57 554.398 497.099L533.626 574.62C533.217 576.149 534.124 577.721 535.653 578.13C537.182 578.54 538.754 577.633 539.164 576.104L559.935 498.582Z" fill="black"/>
<path d="M535.65 573.171C534.121 573.581 533.213 575.152 533.623 576.681C534.033 578.21 535.605 579.118 537.134 578.708L614.655 557.936C616.184 557.527 617.091 555.955 616.682 554.426C616.272 552.897 614.7 551.989 613.171 552.399L535.65 573.171Z" fill="black"/>
<path d="M550.875 1786.47C549.756 1785.35 547.941 1785.35 546.822 1786.47C545.702 1787.59 545.702 1789.4 546.822 1790.52L603.571 1847.27C604.691 1848.39 606.505 1848.39 607.625 1847.27C608.744 1846.15 608.744 1844.34 607.625 1843.22L550.875 1786.47Z" fill="#444444"/>
<path d="M550.825 1788.69C551.235 1787.16 550.328 1785.59 548.799 1785.18C547.27 1784.77 545.698 1785.68 545.288 1787.21L524.516 1864.73C524.107 1866.26 525.014 1867.83 526.543 1868.24C528.072 1868.65 529.644 1867.74 530.054 1866.21L550.825 1788.69Z" fill="#444444"/>
<path d="M526.54 1863.28C525.011 1863.69 524.104 1865.26 524.513 1866.79C524.923 1868.32 526.495 1869.23 528.024 1868.82L605.545 1848.05C607.074 1847.64 607.981 1846.06 607.572 1844.54C607.162 1843.01 605.59 1842.1 604.061 1842.51L526.54 1863.28Z" fill="#444444"/>
<path d="M569.98 1767.36C568.861 1766.24 567.046 1766.24 565.927 1767.36C564.807 1768.48 564.807 1770.29 565.927 1771.41L622.676 1828.16C623.796 1829.28 625.611 1829.28 626.73 1828.16C627.849 1827.04 627.849 1825.23 626.73 1824.11L569.98 1767.36Z" fill="black"/>
<path d="M569.935 1769.58C570.345 1768.05 569.438 1766.48 567.909 1766.07C566.379 1765.66 564.808 1766.57 564.398 1768.1L543.626 1845.62C543.217 1847.15 544.124 1848.72 545.653 1849.13C547.182 1849.54 548.754 1848.63 549.164 1847.1L569.935 1769.58Z" fill="black"/>
<path d="M545.65 1844.17C544.121 1844.58 543.213 1846.15 543.623 1847.68C544.033 1849.21 545.604 1850.12 547.134 1849.71L624.655 1828.94C626.184 1828.53 627.091 1826.96 626.682 1825.43C626.272 1823.9 624.7 1822.99 623.171 1823.4L545.65 1844.17Z" fill="black"/>
<path d="M565.258 1357.32C564.721 1356.78 563.85 1356.78 563.313 1357.32C562.776 1357.86 562.776 1358.73 563.313 1359.27L590.553 1386.51C591.09 1387.04 591.961 1387.04 592.498 1386.51C593.036 1385.97 593.035 1385.1 592.498 1384.56L565.258 1357.32Z" fill="#444444"/>
<path d="M565.237 1358.39C565.433 1357.66 564.998 1356.9 564.264 1356.71C563.53 1356.51 562.776 1356.94 562.579 1357.68L552.608 1394.89C552.412 1395.62 552.847 1396.38 553.581 1396.57C554.315 1396.77 555.07 1396.34 555.266 1395.6L565.237 1358.39Z" fill="#444444"/>
<path d="M553.582 1394.2C552.848 1394.39 552.412 1395.15 552.609 1395.88C552.806 1396.61 553.56 1397.05 554.294 1396.85L591.504 1386.88C592.238 1386.69 592.674 1385.93 592.477 1385.2C592.28 1384.46 591.526 1384.03 590.792 1384.23L553.582 1394.2Z" fill="#444444"/>
<path d="M574.434 1348.15C573.896 1347.61 573.025 1347.61 572.488 1348.15C571.951 1348.69 571.951 1349.56 572.488 1350.1L599.728 1377.34C600.265 1377.87 601.136 1377.87 601.673 1377.34C602.211 1376.8 602.211 1375.93 601.673 1375.39L574.434 1348.15Z" fill="black"/>
<path d="M574.407 1349.22C574.603 1348.49 574.168 1347.73 573.434 1347.54C572.7 1347.34 571.946 1347.77 571.749 1348.51L561.778 1385.72C561.582 1386.45 562.017 1387.21 562.751 1387.4C563.485 1387.6 564.24 1387.17 564.436 1386.43L574.407 1349.22Z" fill="black"/>
<path d="M562.752 1385.02C562.018 1385.22 561.582 1385.97 561.779 1386.71C561.976 1387.44 562.73 1387.88 563.464 1387.68L600.674 1377.71C601.408 1377.51 601.844 1376.76 601.647 1376.02C601.45 1375.29 600.696 1374.85 599.962 1375.05L562.752 1385.02Z" fill="black"/>
<path d="M232.177 142.196C230.52 139.326 226.85 138.343 223.981 140C221.111 141.657 220.128 145.326 221.784 148.196L245.784 189.765C247.441 192.635 251.111 193.618 253.981 191.962C256.85 190.305 257.834 186.635 256.177 183.765L232.177 142.196Z" fill="#999999"/>
<path d="M215.196 172.785C212.326 174.442 211.343 178.111 213 180.981C214.657 183.851 218.326 184.834 221.196 183.177L262.765 159.177C265.635 157.52 266.618 153.851 264.962 150.981C263.305 148.111 259.635 147.128 256.765 148.785L215.196 172.785Z" fill="#999999"/>
<path d="M234.548 139.903C233.112 137.416 229.932 136.564 227.445 138C224.958 139.436 224.106 142.616 225.541 145.103L246.342 181.13C247.777 183.617 250.958 184.469 253.445 183.033C255.932 181.597 256.784 178.417 255.348 175.93L234.548 139.903Z" fill="black"/>
<path d="M219.831 166.413C217.344 167.849 216.492 171.03 217.928 173.517C219.364 176.004 222.544 176.856 225.031 175.42L261.058 154.62C263.545 153.184 264.397 150.004 262.961 147.517C261.525 145.03 258.345 144.177 255.858 145.613L219.831 166.413Z" fill="black"/>
<path d="M33.5148 159.618L-0.292593 168.676C-0.959425 168.855 -1.35515 169.541 -1.17648 170.207C-0.997799 170.874 -0.312378 171.27 0.354455 171.091L34.1619 162.033C34.8287 161.854 35.2244 161.169 35.0457 160.502C34.8671 159.835 34.1816 159.439 33.5148 159.618Z" fill="#363636"/>
<path d="M42.5733 193.425L8.76588 202.484C8.09905 202.663 7.70332 203.348 7.882 204.015C8.06067 204.682 8.74609 205.077 9.41293 204.899L43.2203 195.84C43.8872 195.661 44.2829 194.976 44.1042 194.309C43.9255 193.642 43.2401 193.247 42.5733 193.425Z" fill="#363636"/>
<path d="M-1.17669 170.207L7.88198 204.015C8.06066 204.681 8.74608 205.077 9.41291 204.898C10.0797 204.72 10.4755 204.034 10.2968 203.368L1.23813 169.56C1.05945 168.893 0.374026 168.498 -0.292807 168.676C-0.95964 168.855 -1.35537 169.54 -1.17669 170.207Z" fill="#363636"/>
<path d="M32.6309 161.149L41.6895 194.956C41.8682 195.623 42.5536 196.019 43.2205 195.84C43.8873 195.661 44.283 194.976 44.1044 194.309L35.0457 160.502C34.867 159.835 34.1816 159.439 33.5148 159.618C32.8479 159.796 32.4522 160.482 32.6309 161.149Z" fill="#363636"/>
<path d="M38.5148 154.823L4.70741 163.882C4.04057 164.061 3.64485 164.746 3.82352 165.413C4.0022 166.08 4.68762 166.475 5.35445 166.297L39.1619 157.238C39.8287 157.059 40.2244 156.374 40.0457 155.707C39.8671 155.04 39.1816 154.645 38.5148 154.823Z" fill="black"/>
<path d="M47.5733 188.631L13.7659 197.689C13.099 197.868 12.7033 198.554 12.882 199.22C13.0607 199.887 13.7461 200.283 14.4129 200.104L48.2203 191.046C48.8872 190.867 49.2829 190.182 49.1042 189.515C48.9255 188.848 48.2401 188.452 47.5733 188.631Z" fill="black"/>
<path d="M3.82333 165.413L12.882 199.221C13.0607 199.887 13.7461 200.283 14.4129 200.104C15.0797 199.926 15.4755 199.24 15.2968 198.574L6.23814 164.766C6.05946 164.099 5.37404 163.704 4.70721 163.882C4.04038 164.061 3.64465 164.746 3.82333 165.413Z" fill="black"/>
<path d="M37.6308 156.355L46.6895 190.162C46.8682 190.829 47.5536 191.225 48.2204 191.046C48.8872 190.867 49.283 190.182 49.1043 189.515L40.0456 155.708C39.8669 155.041 39.1815 154.645 38.5147 154.824C37.8479 155.002 37.4521 155.688 37.6308 156.355Z" fill="black"/>
<path d="M584.565 1095.04L534.778 1108.38C533.796 1108.64 533.213 1109.65 533.476 1110.63C533.74 1111.62 534.749 1112.2 535.731 1111.93L585.518 1098.59C586.5 1098.33 587.083 1097.32 586.82 1096.34C586.557 1095.36 585.547 1094.78 584.565 1095.04Z" fill="#363636"/>
<path d="M597.905 1144.82L548.118 1158.16C547.136 1158.43 546.553 1159.44 546.816 1160.42C547.08 1161.4 548.089 1161.98 549.071 1161.72L598.858 1148.38C599.84 1148.12 600.423 1147.11 600.16 1146.12C599.897 1145.14 598.887 1144.56 597.905 1144.82Z" fill="#363636"/>
<path d="M533.478 1110.63L546.819 1160.42C547.082 1161.4 548.091 1161.98 549.073 1161.72C550.055 1161.46 550.638 1160.45 550.375 1159.46L537.034 1109.68C536.771 1108.69 535.762 1108.11 534.78 1108.38C533.798 1108.64 533.215 1109.65 533.478 1110.63Z" fill="#363636"/>
<path d="M583.263 1097.29L596.603 1147.08C596.867 1148.06 597.876 1148.64 598.858 1148.38C599.84 1148.12 600.423 1147.11 600.16 1146.12L586.819 1096.34C586.556 1095.36 585.547 1094.77 584.565 1095.04C583.583 1095.3 583 1096.31 583.263 1097.29Z" fill="#363636"/>
<path d="M591.93 1087.98L542.143 1101.32C541.161 1101.58 540.578 1102.59 540.841 1103.57C541.105 1104.56 542.114 1105.14 543.096 1104.87L592.883 1091.53C593.865 1091.27 594.448 1090.26 594.185 1089.28C593.922 1088.3 592.912 1087.72 591.93 1087.98Z" fill="black"/>
<path d="M605.27 1137.76L555.483 1151.1C554.501 1151.37 553.918 1152.38 554.181 1153.36L554.181 1153.36C554.445 1154.34 555.454 1154.92 556.436 1154.66L606.223 1141.32C607.205 1141.06 607.788 1140.05 607.525 1139.06L607.525 1139.06C607.262 1138.08 606.252 1137.5 605.27 1137.76Z" fill="black"/>
<path d="M540.838 1103.57L554.179 1153.36C554.442 1154.34 555.451 1154.92 556.433 1154.66C557.415 1154.4 557.998 1153.39 557.735 1152.4L544.394 1102.62C544.131 1101.64 543.122 1101.05 542.14 1101.32C541.158 1101.58 540.575 1102.59 540.838 1103.57Z" fill="black"/>
<path d="M590.628 1090.23L603.969 1140.02C604.232 1141 605.241 1141.58 606.223 1141.32C607.205 1141.06 607.788 1140.05 607.525 1139.06L594.184 1089.28C593.921 1088.29 592.912 1087.71 591.93 1087.98C590.948 1088.24 590.365 1089.25 590.628 1090.23Z" fill="black"/>
<mask id="mask8_1_2" style="mask-type:alpha" maskUnits="userSpaceOnUse" x="457" y="128" width="65" height="58">
<path d="M466.935 183.564C462.36 178.985 459.265 173.134 458.06 166.772C456.86 160.41 457.6 153.832 460.19 147.897C462.78 141.963 467.095 136.946 472.575 133.501C478.06 130.056 484.455 128.343 490.925 128.586C497.395 128.828 503.64 131.014 508.85 134.859C514.06 138.704 517.99 144.03 520.13 150.142C522.265 156.253 522.515 162.867 520.84 169.121C519.165 175.376 515.64 180.98 510.735 185.203L495.965 168.039C497.42 166.784 498.47 165.119 498.965 163.26C499.465 161.402 499.39 159.436 498.755 157.62C498.12 155.804 496.95 154.221 495.405 153.078C493.855 151.935 492 151.285 490.075 151.213C488.155 151.141 486.255 151.651 484.625 152.674C482.995 153.698 481.71 155.189 480.945 156.953C480.175 158.717 479.955 160.671 480.31 162.561C480.67 164.452 481.585 166.191 482.95 167.552L466.935 183.564Z" fill="white"/>
</mask>
<g mask="url(#mask8_1_2)">
<path d="M466.935 183.564C462.36 178.985 459.265 173.134 458.06 166.772C456.86 160.41 457.6 153.832 460.19 147.897C462.78 141.963 467.095 136.946 472.575 133.501C478.06 130.056 484.455 128.343 490.925 128.586C497.395 128.828 503.64 131.014 508.85 134.859C514.06 138.704 517.99 144.03 520.13 150.142C522.265 156.253 522.515 162.867 520.84 169.121C519.165 175.376 515.64 180.98 510.735 185.203L495.965 168.039C497.42 166.784 498.47 165.119 498.965 163.26C499.465 161.402 499.39 159.436 498.755 157.62C498.12 155.804 496.95 154.221 495.405 153.078C493.855 151.935 492 151.285 490.075 151.213C488.155 151.141 486.255 151.651 484.625 152.674C482.995 153.698 481.71 155.189 480.945 156.953C480.175 158.717 479.955 160.671 480.31 162.561C480.67 164.452 481.585 166.191 482.95 167.552L466.935 183.564Z" stroke="#C4C4C4" stroke-width="10"/>
</g>
<mask id="mask9_1_2" style="mask-type:alpha" maskUnits="userSpaceOnUse" x="468" y="118" width="65" height="57">
<path d="M477.5 173C472.92 168.422 469.83 162.57 468.625 156.208C467.42 149.846 468.16 143.269 470.75 137.335C473.34 131.4 477.66 126.383 483.14 122.938C488.625 119.493 495.015 117.78 501.485 118.022C507.955 118.264 514.205 120.451 519.415 124.296C524.625 128.141 528.555 133.467 530.69 139.578C532.83 145.69 533.08 152.304 531.4 158.558C529.725 164.812 526.205 170.416 521.295 174.639L506.525 157.476C507.985 156.221 509.03 154.556 509.53 152.697C510.03 150.838 509.955 148.872 509.32 147.056C508.685 145.24 507.515 143.657 505.965 142.514C504.42 141.372 502.565 140.723 500.64 140.651C498.715 140.579 496.815 141.087 495.19 142.111C493.56 143.135 492.275 144.626 491.505 146.389C490.735 148.153 490.515 150.108 490.875 151.999C491.23 153.889 492.15 155.628 493.51 156.988L477.5 173Z" fill="white"/>
</mask>
<g mask="url(#mask9_1_2)">
<path d="M477.5 173C472.92 168.422 469.83 162.57 468.625 156.208C467.42 149.846 468.16 143.269 470.75 137.335C473.34 131.4 477.66 126.383 483.14 122.938C488.625 119.493 495.015 117.78 501.485 118.022C507.955 118.264 514.205 120.451 519.415 124.296C524.625 128.141 528.555 133.467 530.69 139.578C532.83 145.69 533.08 152.304 531.4 158.558C529.725 164.812 526.205 170.416 521.295 174.639L506.525 157.476C507.985 156.221 509.03 154.556 509.53 152.697C510.03 150.838 509.955 148.872 509.32 147.056C508.685 145.24 507.515 143.657 505.965 142.514C504.42 141.372 502.565 140.723 500.64 140.651C498.715 140.579 496.815 141.087 495.19 142.111C493.56 143.135 492.275 144.626 491.505 146.389C490.735 148.153 490.515 150.108 490.875 151.999C491.23 153.889 492.15 155.628 493.51 156.988L477.5 173Z" stroke="black" stroke-width="10"/>
</g>
<mask id="mask10_1_2" style="mask-type:alpha" maskUnits="userSpaceOnUse" x="232" y="524" width="65" height="58">
<path d="M241.937 579.565C237.358 574.985 234.266 569.135 233.062 562.77C231.858 556.41 232.599 549.83 235.189 543.9C237.778 537.965 242.095 532.945 247.578 529.5C253.06 526.055 259.453 524.345 265.924 524.585C272.394 524.83 278.641 527.015 283.851 530.86C289.061 534.705 292.991 540.03 295.129 546.14C297.268 552.255 297.515 558.865 295.839 565.12C294.163 571.375 290.641 576.98 285.733 581.205L270.964 564.04C272.422 562.785 273.468 561.12 273.966 559.26C274.465 557.4 274.392 555.435 273.756 553.62C273.121 551.805 271.952 550.22 270.404 549.08C268.856 547.935 267 547.285 265.077 547.215C263.154 547.14 261.254 547.65 259.625 548.675C257.995 549.7 256.712 551.19 255.943 552.955C255.173 554.715 254.953 556.67 255.31 558.56C255.668 560.45 256.588 562.19 257.948 563.55L241.937 579.565Z" fill="white"/>
</mask>
<g mask="url(#mask10_1_2)">
<path d="M241.937 579.565C237.358 574.985 234.266 569.135 233.062 562.77C231.858 556.41 232.599 549.83 235.189 543.9C237.778 537.965 242.095 532.945 247.578 529.5C253.06 526.055 259.453 524.345 265.924 524.585C272.394 524.83 278.641 527.015 283.851 530.86C289.061 534.705 292.991 540.03 295.129 546.14C297.268 552.255 297.515 558.865 295.839 565.12C294.163 571.375 290.641 576.98 285.733 581.205L270.964 564.04C272.422 562.785 273.468 561.12 273.966 559.26C274.465 557.4 274.392 555.435 273.756 553.62C273.121 551.805 271.952 550.22 270.404 549.08C268.856 547.935 267 547.285 265.077 547.215C263.154 547.14 261.254 547.65 259.625 548.675C257.995 549.7 256.712 551.19 255.943 552.955C255.173 554.715 254.953 556.67 255.31 558.56C255.668 560.45 256.588 562.19 257.948 563.55L241.937 579.565Z" stroke="#C4C4C4" stroke-width="10"/>
</g>
<mask id="mask11_1_2" style="mask-type:alpha" maskUnits="userSpaceOnUse" x="243" y="514" width="65" height="57">
<path d="M252.5 569C247.921 564.42 244.829 558.57 243.625 552.21C242.421 545.845 243.162 539.27 245.751 533.335C248.341 527.4 252.658 522.385 258.141 518.94C263.623 515.495 270.016 513.78 276.487 514.025C282.957 514.265 289.205 516.45 294.414 520.295C299.624 524.14 303.554 529.465 305.692 535.58C307.831 541.69 308.078 548.305 306.402 554.56C304.726 560.81 301.205 566.415 296.297 570.64L281.527 553.475C282.986 552.22 284.032 550.555 284.53 548.695C285.028 546.84 284.955 544.87 284.319 543.055C283.684 541.24 282.516 539.655 280.968 538.515C279.42 537.37 277.563 536.72 275.64 536.65C273.717 536.58 271.817 537.085 270.187 538.11C268.558 539.135 267.276 540.625 266.506 542.39C265.737 544.155 265.516 546.11 265.874 548C266.231 549.89 267.15 551.63 268.512 552.99L252.5 569Z" fill="white"/>
</mask>
<g mask="url(#mask11_1_2)">
<path d="M252.5 569C247.921 564.42 244.829 558.57 243.625 552.21C242.421 545.845 243.162 539.27 245.751 533.335C248.341 527.4 252.658 522.385 258.141 518.94C263.623 515.495 270.016 513.78 276.487 514.025C282.957 514.265 289.205 516.45 294.414 520.295C299.624 524.14 303.554 529.465 305.692 535.58C307.831 541.69 308.078 548.305 306.402 554.56C304.726 560.81 301.205 566.415 296.297 570.64L281.527 553.475C282.986 552.22 284.032 550.555 284.53 548.695C285.028 546.84 284.955 544.87 284.319 543.055C283.684 541.24 282.516 539.655 280.968 538.515C279.42 537.37 277.563 536.72 275.64 536.65C273.717 536.58 271.817 537.085 270.187 538.11C268.558 539.135 267.276 540.625 266.506 542.39C265.737 544.155 265.516 546.11 265.874 548C266.231 549.89 267.15 551.63 268.512 552.99L252.5 569Z" stroke="black" stroke-width="10"/>
</g>
<mask id="mask12_1_2" style="mask-type:alpha" maskUnits="userSpaceOnUse" x="-57" y="1822" width="65" height="58">
<path d="M-47.5 1877.5C-52.0785 1872.92 -55.171 1867.07 -56.375 1860.71C-57.5785 1854.34 -56.8375 1847.77 -54.2485 1841.83C-51.659 1835.9 -47.3415 1830.88 -41.859 1827.44C-36.3765 1823.99 -29.9835 1822.28 -23.513 1822.52C-17.043 1822.76 -10.7955 1824.95 -5.58597 1828.8C-0.376472 1832.64 3.55403 1837.96 5.69203 1844.08C7.83053 1850.19 8.07802 1856.81 6.40202 1863.06C4.72602 1869.31 1.20453 1874.91 -3.70347 1879.14L-18.473 1861.97C-17.0145 1860.72 -15.968 1859.05 -15.47 1857.19C-14.972 1855.34 -15.0455 1853.37 -15.681 1851.56C-16.3165 1849.74 -17.4845 1848.15 -19.0325 1847.01C-20.5805 1845.87 -22.4375 1845.22 -24.36 1845.15C-26.283 1845.08 -28.183 1845.58 -29.8125 1846.61C-31.4415 1847.63 -32.7245 1849.12 -33.494 1850.89C-34.2635 1852.65 -34.484 1854.61 -34.126 1856.5C-33.7685 1858.39 -32.8495 1860.13 -31.4885 1861.49L-47.5 1877.5Z" fill="white"/>
</mask>
<g mask="url(#mask12_1_2)">
<path d="M-47.5 1877.5C-52.0785 1872.92 -55.171 1867.07 -56.375 1860.71C-57.5785 1854.34 -56.8375 1847.77 -54.2485 1841.83C-51.659 1835.9 -47.3415 1830.88 -41.859 1827.44C-36.3765 1823.99 -29.9835 1822.28 -23.513 1822.52C-17.043 1822.76 -10.7955 1824.95 -5.58597 1828.8C-0.376472 1832.64 3.55403 1837.96 5.69203 1844.08C7.83053 1850.19 8.07802 1856.81 6.40202 1863.06C4.72602 1869.31 1.20453 1874.91 -3.70347 1879.14L-18.473 1861.97C-17.0145 1860.72 -15.968 1859.05 -15.47 1857.19C-14.972 1855.34 -15.0455 1853.37 -15.681 1851.56C-16.3165 1849.74 -17.4845 1848.15 -19.0325 1847.01C-20.5805 1845.87 -22.4375 1845.22 -24.36 1845.15C-26.283 1845.08 -28.183 1845.58 -29.8125 1846.61C-31.4415 1847.63 -32.7245 1849.12 -33.494 1850.89C-34.2635 1852.65 -34.484 1854.61 -34.126 1856.5C-33.7685 1858.39 -32.8495 1860.13 -31.4885 1861.49L-47.5 1877.5Z" stroke="black" stroke-width="10"/>
</g>
</g>
</g>
<defs>
<clipPath id="clip0_1_2">
<rect width="718" height="2067" fill="white"/>
</clipPath>
<clipPath id="clip1_1_2">
<rect width="720" height="2066.5" fill="white"/>
</clipPath>
<clipPath id="clip2_1_2">
<rect width="720" height="2066.5" fill="white" transform="translate(-126 -169)"/>
</clipPath>
</defs>
</svg>
