<svg width="51" height="62" viewBox="0 0 51 62" fill="none" xmlns="http://www.w3.org/2000/svg">
<path d="M4.64157 55.7322L0 0.31897H51L46.3544 55.7231L25.4688 61.8872L4.64157 55.7322Z" fill="#1572B6"/>
<path d="M25.5009 57.176L42.3767 52.1956L46.347 4.85022H25.5009V57.176Z" fill="#33A9DC"/>
<path d="M25.5002 24.9261H33.9487L34.5329 17.9669H25.5002V11.1705H41.5104L41.3574 12.9938L39.7884 31.7218H25.5002V24.9261Z" fill="white"/>
<path d="M25.5387 42.5766L25.5106 42.5852L18.4001 40.541L17.9449 35.1206H11.5366L12.4315 45.7917L25.5095 49.6561L25.5393 49.647V42.5766H25.5387Z" fill="#EBEBEB"/>
<path d="M33.4065 31.4344L32.6372 40.5361L25.5164 42.582V49.653L38.6053 45.7917L38.7016 44.6433L39.8125 31.4344H33.4065Z" fill="white"/>
<path d="M25.5227 11.1705V17.9662H10.1006L9.9722 16.4389L9.68156 12.9938L9.5285 11.1705H25.5227ZM25.5003 24.9267V31.723H18.4797L18.3519 30.1957L18.0607 26.75L17.9076 24.9267H25.5003Z" fill="#EBEBEB"/>
</svg>
