<svg width="118" height="16" viewBox="0 0 118 16" fill="none" xmlns="http://www.w3.org/2000/svg">
<path d="M11.495 0.901999V15H9.215V13.689C8.82233 14.1703 8.33467 14.5313 7.752 14.772C7.182 15.0127 6.54867 15.133 5.852 15.133C4.87667 15.133 3.99633 14.9177 3.211 14.487C2.43833 14.0563 1.83033 13.4483 1.387 12.663C0.943667 11.865 0.722 10.953 0.722 9.927C0.722 8.901 0.943667 7.99533 1.387 7.21C1.83033 6.42467 2.43833 5.81667 3.211 5.386C3.99633 4.95533 4.87667 4.74 5.852 4.74C6.52333 4.74 7.13767 4.854 7.695 5.082C8.25233 5.31 8.72733 5.652 9.12 6.108V0.901999H11.495ZM6.137 13.1C6.707 13.1 7.22 12.9733 7.676 12.72C8.132 12.454 8.493 12.0803 8.759 11.599C9.025 11.1177 9.158 10.5603 9.158 9.927C9.158 9.29367 9.025 8.73633 8.759 8.255C8.493 7.77367 8.132 7.40633 7.676 7.153C7.22 6.887 6.707 6.754 6.137 6.754C5.567 6.754 5.054 6.887 4.598 7.153C4.142 7.40633 3.781 7.77367 3.515 8.255C3.249 8.73633 3.116 9.29367 3.116 9.927C3.116 10.5603 3.249 11.1177 3.515 11.599C3.781 12.0803 4.142 12.454 4.598 12.72C5.054 12.9733 5.567 13.1 6.137 13.1ZM25.4699 4.854V15H23.2089V13.689C22.8163 14.1703 22.3286 14.5313 21.7459 14.772C21.1759 15.0127 20.5426 15.133 19.8459 15.133C18.8579 15.133 17.9713 14.9177 17.1859 14.487C16.4133 14.0563 15.8053 13.4483 15.3619 12.663C14.9313 11.8777 14.7159 10.9657 14.7159 9.927C14.7159 8.88833 14.9313 7.98267 15.3619 7.21C15.8053 6.42467 16.4133 5.81667 17.1859 5.386C17.9713 4.95533 18.8579 4.74 19.8459 4.74C20.5046 4.74 21.1063 4.854 21.6509 5.082C22.2083 5.31 22.6896 5.64567 23.0949 6.089V4.854H25.4699ZM20.1119 13.1C20.9859 13.1 21.7079 12.8087 22.2779 12.226C22.8479 11.6433 23.1329 10.877 23.1329 9.927C23.1329 8.977 22.8479 8.21067 22.2779 7.628C21.7079 7.04533 20.9859 6.754 20.1119 6.754C19.2379 6.754 18.5159 7.04533 17.9459 7.628C17.3886 8.21067 17.1099 8.977 17.1099 9.927C17.1099 10.877 17.3886 11.6433 17.9459 12.226C18.5159 12.8087 19.2379 13.1 20.1119 13.1ZM35.2843 4.74C36.5637 4.74 37.5897 5.11367 38.3623 5.861C39.135 6.60833 39.5213 7.71667 39.5213 9.186V15H37.1463V9.49C37.1463 8.60333 36.9373 7.93833 36.5193 7.495C36.1013 7.039 35.506 6.811 34.7333 6.811C33.8593 6.811 33.169 7.077 32.6623 7.609C32.1557 8.12833 31.9023 8.882 31.9023 9.87V15H29.5273V4.854H31.7883V6.165C32.181 5.69633 32.675 5.34167 33.2703 5.101C33.8657 4.86033 34.537 4.74 35.2843 4.74ZM47.6262 10.649L45.8592 12.321V15H43.4842V0.901999H45.8592V9.414L50.7802 4.854H53.6302L49.3932 9.11L54.0292 15H51.1412L47.6262 10.649ZM56.4205 4.854H58.7955V15H56.4205V4.854ZM57.6175 3.182C57.1868 3.182 56.8258 3.049 56.5345 2.783C56.2432 2.50433 56.0975 2.16233 56.0975 1.757C56.0975 1.35167 56.2432 1.016 56.5345 0.749999C56.8258 0.471333 57.1868 0.332 57.6175 0.332C58.0482 0.332 58.4092 0.465 58.7005 0.730999C58.9918 0.984333 59.1375 1.30733 59.1375 1.7C59.1375 2.118 58.9918 2.47267 58.7005 2.764C58.4218 3.04267 58.0608 3.182 57.6175 3.182ZM73.1064 15.133C72.055 15.133 71.1114 14.9113 70.2754 14.468C69.4394 14.0247 68.787 13.4103 68.3184 12.625C67.8497 11.827 67.6154 10.9277 67.6154 9.927C67.6154 8.92633 67.8497 8.03333 68.3184 7.248C68.787 6.46267 69.433 5.84833 70.2564 5.405C71.0924 4.96167 72.0424 4.74 73.1064 4.74C74.107 4.74 74.981 4.94267 75.7284 5.348C76.4884 5.75333 77.0584 6.336 77.4384 7.096L75.6144 8.16C75.323 7.69133 74.9557 7.343 74.5124 7.115C74.0817 6.87433 73.6067 6.754 73.0874 6.754C72.2007 6.754 71.466 7.04533 70.8834 7.628C70.3007 8.198 70.0094 8.96433 70.0094 9.927C70.0094 10.8897 70.2944 11.6623 70.8644 12.245C71.447 12.815 72.188 13.1 73.0874 13.1C73.6067 13.1 74.0817 12.986 74.5124 12.758C74.9557 12.5173 75.323 12.1627 75.6144 11.694L77.4384 12.758C77.0457 13.518 76.4694 14.107 75.7094 14.525C74.962 14.9303 74.0944 15.133 73.1064 15.133ZM84.853 15.133C83.827 15.133 82.9023 14.9113 82.079 14.468C81.2556 14.0247 80.6096 13.4103 80.141 12.625C79.685 11.827 79.457 10.9277 79.457 9.927C79.457 8.92633 79.685 8.03333 80.141 7.248C80.6096 6.46267 81.2556 5.84833 82.079 5.405C82.9023 4.96167 83.827 4.74 84.853 4.74C85.8916 4.74 86.8226 4.96167 87.646 5.405C88.4693 5.84833 89.109 6.46267 89.565 7.248C90.0336 8.03333 90.268 8.92633 90.268 9.927C90.268 10.9277 90.0336 11.827 89.565 12.625C89.109 13.4103 88.4693 14.0247 87.646 14.468C86.8226 14.9113 85.8916 15.133 84.853 15.133ZM84.853 13.1C85.727 13.1 86.449 12.8087 87.019 12.226C87.589 11.6433 87.874 10.877 87.874 9.927C87.874 8.977 87.589 8.21067 87.019 7.628C86.449 7.04533 85.727 6.754 84.853 6.754C83.979 6.754 83.257 7.04533 82.687 7.628C82.1296 8.21067 81.851 8.977 81.851 9.927C81.851 10.877 82.1296 11.6433 82.687 12.226C83.257 12.8087 83.979 13.1 84.853 13.1ZM103.426 0.901999V15H101.146V13.689C100.753 14.1703 100.266 14.5313 99.6831 14.772C99.1131 15.0127 98.4797 15.133 97.7831 15.133C96.8077 15.133 95.9274 14.9177 95.1421 14.487C94.3694 14.0563 93.7614 13.4483 93.3181 12.663C92.8747 11.865 92.6531 10.953 92.6531 9.927C92.6531 8.901 92.8747 7.99533 93.3181 7.21C93.7614 6.42467 94.3694 5.81667 95.1421 5.386C95.9274 4.95533 96.8077 4.74 97.7831 4.74C98.4544 4.74 99.0687 4.854 99.6261 5.082C100.183 5.31 100.658 5.652 101.051 6.108V0.901999H103.426ZM98.0681 13.1C98.6381 13.1 99.1511 12.9733 99.6071 12.72C100.063 12.454 100.424 12.0803 100.69 11.599C100.956 11.1177 101.089 10.5603 101.089 9.927C101.089 9.29367 100.956 8.73633 100.69 8.255C100.424 7.77367 100.063 7.40633 99.6071 7.153C99.1511 6.887 98.6381 6.754 98.0681 6.754C97.4981 6.754 96.9851 6.887 96.5291 7.153C96.0731 7.40633 95.7121 7.77367 95.4461 8.255C95.1801 8.73633 95.0471 9.29367 95.0471 9.927C95.0471 10.5603 95.1801 11.1177 95.4461 11.599C95.7121 12.0803 96.0731 12.454 96.5291 12.72C96.9851 12.9733 97.4981 13.1 98.0681 13.1ZM112.309 13.119C113.411 13.119 114.329 12.7517 115.064 12.017L116.318 13.48C115.875 14.0247 115.305 14.4363 114.608 14.715C113.911 14.9937 113.126 15.133 112.252 15.133C111.137 15.133 110.156 14.9113 109.307 14.468C108.458 14.0247 107.8 13.4103 107.331 12.625C106.875 11.827 106.647 10.9277 106.647 9.927C106.647 8.939 106.869 8.05233 107.312 7.267C107.768 6.469 108.389 5.84833 109.174 5.405C109.972 4.96167 110.871 4.74 111.872 4.74C112.822 4.74 113.683 4.949 114.456 5.367C115.241 5.77233 115.862 6.36133 116.318 7.134C116.774 7.894 117.002 8.787 117.002 9.813L109.231 11.333C109.472 11.9157 109.858 12.359 110.39 12.663C110.922 12.967 111.562 13.119 112.309 13.119ZM111.872 6.64C110.998 6.64 110.289 6.925 109.744 7.495C109.212 8.065 108.946 8.83133 108.946 9.794V9.813L114.684 8.711C114.519 8.09033 114.184 7.59 113.677 7.21C113.183 6.83 112.581 6.64 111.872 6.64Z" fill="white"/>
<path d="M63.6227 15.133C63.192 15.133 62.8247 14.9873 62.5207 14.696C62.2167 14.392 62.0647 14.012 62.0647 13.556C62.0647 13.0873 62.2104 12.7073 62.5017 12.416C62.8057 12.1247 63.1794 11.979 63.6227 11.979C64.066 11.979 64.4334 12.1247 64.7247 12.416C65.0287 12.7073 65.1807 13.0873 65.1807 13.556C65.1807 14.012 65.0287 14.392 64.7247 14.696C64.4207 14.9873 64.0534 15.133 63.6227 15.133Z" fill="#6253A3"/>
</svg>
