<svg width="50" height="50" viewBox="0 0 50 50" fill="none" xmlns="http://www.w3.org/2000/svg">
<path d="M38.5 6C38.224 6 38 6.224 38 6.5C38 6.776 38.224 7 38.5 7C38.776 7 39 6.776 39 6.5C39 6.224 38.776 6 38.5 6Z" fill="#F1BC19"/>
<path d="M25 6.5C14.7825 6.5 6.5 14.7825 6.5 25C6.5 35.2175 14.7825 43.5 25 43.5C35.2175 43.5 43.5 35.2175 43.5 25C43.5 14.7825 35.2175 6.5 25 6.5Z" fill="#444444"/>
<path d="M41.5 5.5C40.3955 5.5 39.5 6.3955 39.5 7.5C39.5 8.6045 40.3955 9.5 41.5 9.5C42.6045 9.5 43.5 8.6045 43.5 7.5C43.5 6.3955 42.6045 5.5 41.5 5.5Z" fill="#BEACE5"/>
<path d="M43.5 11C42.9475 11 42.5 11.4475 42.5 12C42.5 12.5525 42.9475 13 43.5 13C44.0525 13 44.5 12.5525 44.5 12C44.5 11.4475 44.0525 11 43.5 11Z" fill="#8889B9"/>
<path d="M40.5 37C39.9475 37 39.5 37.4475 39.5 38C39.5 38.5525 39.9475 39 40.5 39C41.0525 39 41.5 38.5525 41.5 38C41.5 37.4475 41.0525 37 40.5 37ZM7.5 29.5C6.3955 29.5 5.5 30.3955 5.5 31.5C5.5 32.6045 6.3955 33.5 7.5 33.5C8.6045 33.5 9.5 32.6045 9.5 31.5C9.5 30.3955 8.6045 29.5 7.5 29.5Z" fill="#EE3E54"/>
<path d="M12.5 42.5C11.9475 42.5 11.5 42.9475 11.5 43.5C11.5 44.0525 11.9475 44.5 12.5 44.5C13.0525 44.5 13.5 44.0525 13.5 43.5C13.5 42.9475 13.0525 42.5 12.5 42.5Z" fill="#F48E8F"/>
<path d="M9.25 24.5C8.5595 24.5 8 25.0595 8 25.75C8 26.4405 8.5595 27 9.25 27C9.9405 27 10.5 26.4405 10.5 25.75C10.5 25.0595 9.9405 24.5 9.25 24.5ZM39.75 16C39.336 16 39 16.336 39 16.75C39 17.164 39.336 17.5 39.75 17.5C40.164 17.5 40.5 17.164 40.5 16.75C40.5 16.336 40.164 16 39.75 16Z" fill="#39C1D7"/>
<path d="M29.75 30.0385C32.1801 30.0385 34.15 28.0685 34.15 25.6385C34.15 23.2084 32.1801 21.2385 29.75 21.2385C27.32 21.2385 25.35 23.2084 25.35 25.6385C25.35 28.0685 27.32 30.0385 29.75 30.0385Z" fill="#39C1D7"/>
<path d="M21.0945 38.046C18.757 38.046 16.8625 36.1715 16.8625 33.8595C16.8625 31.5475 18.7575 29.673 21.0945 29.673L25.3485 29.651V33.8375C25.349 36.15 23.432 38.046 21.0945 38.046Z" fill="#A0D2A1"/>
<path d="M21.092 21.2035C18.753 21.2035 16.857 19.3075 16.857 16.9685C16.857 14.6295 18.753 12.7335 21.092 12.7335L25.349 12.7115V21.181L21.092 21.2035Z" fill="#EE3E54"/>
<path d="M21.092 29.673C18.753 29.673 16.857 27.777 16.857 25.438C16.857 23.099 18.753 21.203 21.092 21.203L25.349 21.181V29.6505L21.092 29.673Z" fill="#BEACE5"/>
<path d="M29.918 12.734L25.705 12.712V21.1815L29.918 21.2035C32.257 21.2035 34.153 19.3075 34.153 16.9685C34.1525 14.63 32.2565 12.734 29.918 12.734Z" fill="#F48E8F"/>
<path d="M29.75 30.0385C32.1801 30.0385 34.15 28.0685 34.15 25.6385C34.15 23.2084 32.1801 21.2385 29.75 21.2385C27.32 21.2385 25.35 23.2084 25.35 25.6385C25.35 28.0685 27.32 30.0385 29.75 30.0385Z" stroke="#472B29" stroke-width="0.7" stroke-miterlimit="10"/>
<path d="M21.0945 38.046C18.757 38.046 16.8625 36.1715 16.8625 33.8595C16.8625 31.5475 18.7575 29.673 21.0945 29.673L25.3485 29.651V33.8375C25.349 36.15 23.432 38.046 21.0945 38.046Z" stroke="#472B29" stroke-width="0.7" stroke-miterlimit="10"/>
<path d="M21.092 21.2035C18.753 21.2035 16.857 19.3075 16.857 16.9685C16.857 14.6295 18.753 12.7335 21.092 12.7335L25.349 12.7115V21.181L21.092 21.2035Z" stroke="#472B29" stroke-width="0.7" stroke-miterlimit="10"/>
<path d="M21.092 29.673C18.753 29.673 16.857 27.777 16.857 25.438C16.857 23.099 18.753 21.203 21.092 21.203L25.349 21.181V29.6505L21.092 29.673Z" stroke="#472B29" stroke-width="0.7" stroke-miterlimit="10"/>
<path d="M25.705 12.712L29.918 12.734C32.257 12.734 34.153 14.63 34.153 16.969C34.153 19.308 32.257 21.204 29.918 21.204L25.705 21.182" stroke="#472B29" stroke-width="0.7" stroke-miterlimit="10"/>
<path d="M19.0705 18.139C19.473 18.82 20.2145 19.2765 21.063 19.2765" stroke="#472B29" stroke-width="0.5" stroke-miterlimit="10" stroke-linecap="round" stroke-linejoin="round"/>
<path d="M18.8995 16.1435C18.803 16.3985 18.75 16.6745 18.75 16.9635" stroke="#472B29" stroke-width="0.5" stroke-miterlimit="10" stroke-linecap="round" stroke-linejoin="round"/>
<path d="M23.364 14.6385L21.063 14.6505C20.41 14.6505 19.8205 14.921 19.4 15.356" stroke="#472B29" stroke-width="0.5" stroke-miterlimit="10" stroke-linecap="round" stroke-linejoin="round"/>
<path d="M20.25 31.7145C20.502 31.6215 20.7745 31.5705 21.059 31.5705" stroke="#472B29" stroke-width="0.5" stroke-miterlimit="10" stroke-linecap="round"/>
<path d="M19.1495 35.139C18.8975 34.773 18.75 34.331 18.75 33.855C18.75 33.297 18.952 32.786 19.288 32.389" stroke="#472B29" stroke-width="0.5" stroke-miterlimit="10" stroke-linecap="round"/>
<path d="M21.059 36.1385C20.6805 36.1385 20.323 36.0485 20.0075 35.8885" stroke="#472B29" stroke-width="0.5" stroke-miterlimit="10" stroke-linecap="round"/>
<path d="M23.38 33.8425C23.38 34.567 23.035 35.217 22.4995 35.639" stroke="#472B29" stroke-width="0.5" stroke-miterlimit="10" stroke-linecap="round"/>
<path d="M28.2525 27.655C27.644 27.199 27.25 26.472 27.25 25.653" stroke="#472B29" stroke-width="0.5" stroke-miterlimit="10" stroke-linecap="round" stroke-linejoin="round"/>
<path d="M32.055 24.6835C32.1805 24.9815 32.25 25.3095 32.25 25.6535C32.25 27.034 31.1305 28.1535 29.75 28.1535" stroke="#472B29" stroke-width="0.5" stroke-miterlimit="10" stroke-linecap="round" stroke-linejoin="round"/>
<path d="M29.75 23.153C30.268 23.153 30.749 23.3105 31.148 23.58" stroke="#472B29" stroke-width="0.5" stroke-miterlimit="10" stroke-linecap="round" stroke-linejoin="round"/>
</svg>
