<svg width="52" height="52" viewBox="0 0 52 52" fill="none" xmlns="http://www.w3.org/2000/svg">
<path d="M31.0363 22.6183C29.9244 22.6183 29.0964 23.1643 29.0964 24.4786C29.0964 25.4686 29.642 26.156 30.9766 26.156C32.1076 26.156 32.8762 25.4893 32.8762 24.4375C32.8762 23.2456 32.1884 22.6183 31.0363 22.6183ZM28.8137 31.8971C28.5504 32.2201 28.288 32.5633 28.288 32.9684C28.288 33.7764 29.3183 34.0193 30.734 34.0193C31.9061 34.0193 33.503 33.9373 33.503 32.8473C33.503 32.1994 32.7344 32.1595 31.7639 32.0986L28.8137 31.8971ZM34.7957 22.6793C35.1593 23.1444 35.544 23.7912 35.544 24.7211C35.544 26.9644 33.7854 28.2782 31.239 28.2782C30.5914 28.2782 30.0052 28.1978 29.6416 28.0966L28.9746 29.1679L30.955 29.2886C34.452 29.5116 36.5133 29.6128 36.5133 32.3001C36.5133 34.6251 34.4724 35.9381 30.955 35.9381C27.2963 35.9381 25.9021 35.0082 25.9021 33.412C25.9021 32.502 26.3067 32.0182 27.014 31.3499C26.3465 31.0679 26.1247 30.563 26.1247 30.017C26.1247 29.5721 26.3469 29.1679 26.7109 28.7836C27.0749 28.4001 27.4792 28.0154 27.9638 27.5709C26.9734 27.0859 26.2259 26.0349 26.2259 24.5387C26.2259 22.2145 27.7619 20.6184 30.8543 20.6184C31.7237 20.6184 32.2498 20.6984 32.7141 20.8207H36.6559V22.5383L34.7957 22.6793ZM40.2119 19.0068C39.0593 19.0068 38.3923 18.3393 38.3923 17.1868C38.3923 16.0359 39.0593 15.4086 40.2119 15.4086C41.3843 15.4086 42.0509 16.0355 42.0509 17.1868C42.0514 18.3393 41.3843 19.0068 40.2119 19.0068ZM37.6037 31.1537V29.5575L38.6352 29.4161C38.9179 29.3755 38.9582 29.315 38.9582 29.0111V23.0689C38.9582 22.8471 38.898 22.7049 38.6953 22.6448L37.6037 22.2604L37.8259 20.6241H42.0107V29.0115C42.0107 29.3357 42.0302 29.3755 42.3341 29.4165L43.3652 29.5579V31.1541L37.6037 31.1537ZM51.3581 30.3696C50.4884 30.7933 49.2156 31.178 48.0626 31.178C45.6576 31.178 44.7484 30.2087 44.7484 27.9236V22.6281C44.7484 22.5074 44.7484 22.4262 44.5863 22.4262H43.1718V20.6273C44.9512 20.4246 45.658 19.5353 45.8803 17.3322H47.801V20.2032C47.801 20.3442 47.801 20.4055 47.9627 20.4055H50.8125V22.4266H47.801V27.2569C47.801 28.4493 48.0842 28.914 49.1754 28.914C49.7421 28.914 50.3275 28.773 50.8125 28.591L51.3581 30.3696Z" fill="white"/>
<path d="M21.4094 25.0656L12.1676 15.8242C11.912 15.5687 11.5654 15.4252 11.204 15.4252C10.8426 15.4252 10.496 15.5687 10.2404 15.8242L8.32123 17.7434L10.7551 20.1776C11.0413 20.0803 11.349 20.0651 11.6434 20.1338C11.9378 20.2024 12.2071 20.3521 12.4207 20.566C12.6356 20.7811 12.7857 21.0523 12.8537 21.3486C12.9217 21.645 12.905 21.9545 12.8054 22.2418L15.1515 24.5879C15.4983 24.467 15.8758 24.4676 16.2222 24.5894C16.5686 24.7113 16.8633 24.9472 17.058 25.2585C17.2528 25.5697 17.336 25.938 17.2941 26.3028C17.2522 26.6675 17.0876 27.0073 16.8273 27.2663C16.5623 27.5318 16.2135 27.6972 15.8402 27.7344C15.4669 27.7716 15.0923 27.6782 14.7801 27.4702C14.468 27.2622 14.2376 26.9524 14.1282 26.5936C14.0188 26.2348 14.0371 25.8491 14.1802 25.5023L11.9921 23.3143L11.9917 29.0725C12.2227 29.1865 12.4231 29.354 12.5765 29.5609C12.7299 29.7679 12.8317 30.0084 12.8737 30.2625C12.9156 30.5167 12.8964 30.7772 12.8176 31.0224C12.7388 31.2677 12.6028 31.4907 12.4207 31.6729C12.2509 31.8426 12.0456 31.9725 11.8195 32.0533C11.5934 32.134 11.3522 32.1636 11.1133 32.1398C10.8744 32.116 10.6438 32.0396 10.4381 31.9159C10.2323 31.7922 10.0566 31.6244 9.92355 31.4245C9.79052 31.2247 9.7035 30.9978 9.66878 30.7603C9.63405 30.5227 9.65248 30.2804 9.72274 30.0509C9.793 29.8213 9.91333 29.6102 10.0751 29.4328C10.2368 29.2554 10.4359 29.1161 10.658 29.0249V23.2135C10.4599 23.1324 10.2799 23.0129 10.1283 22.8618C9.97665 22.7107 9.85645 22.5311 9.77461 22.3334C9.69276 22.1356 9.65089 21.9236 9.65141 21.7096C9.65193 21.4956 9.69483 21.2838 9.77764 21.0864L7.37832 18.6863L1.04123 25.023C0.914574 25.1496 0.814102 25.2999 0.745554 25.4653C0.677006 25.6308 0.641724 25.8081 0.641724 25.9872C0.641724 26.1663 0.677006 26.3436 0.745554 26.5091C0.814102 26.6745 0.914574 26.8248 1.04123 26.9514L10.283 36.1928C10.5387 36.4484 10.8855 36.5919 11.247 36.5919C11.6086 36.5919 11.9553 36.4484 12.2111 36.1928L21.4094 26.9937C21.536 26.8671 21.6365 26.7168 21.705 26.5514C21.7736 26.386 21.8089 26.2087 21.8089 26.0296C21.8089 25.8506 21.7736 25.6733 21.705 25.5079C21.6365 25.3425 21.536 25.1922 21.4094 25.0656Z" fill="#F34F29"/>
</svg>
