<svg width="50" height="50" viewBox="0 0 50 50" fill="none" xmlns="http://www.w3.org/2000/svg">
<path d="M38.5 6C38.3674 6 38.2402 6.05268 38.1464 6.14645C38.0527 6.24021 38 6.36739 38 6.5C38 6.63261 38.0527 6.75979 38.1464 6.85355C38.2402 6.94732 38.3674 7 38.5 7C38.6326 7 38.7598 6.94732 38.8536 6.85355C38.9473 6.75979 39 6.63261 39 6.5C39 6.36739 38.9473 6.24021 38.8536 6.14645C38.7598 6.05268 38.6326 6 38.5 6Z" fill="#777777"/>
<path d="M25 6.5C20.0935 6.5 15.3879 8.4491 11.9185 11.9185C8.4491 15.3879 6.5 20.0935 6.5 25C6.5 29.9065 8.4491 34.6121 11.9185 38.0815C15.3879 41.5509 20.0935 43.5 25 43.5C29.9065 43.5 34.6121 41.5509 38.0815 38.0815C41.5509 34.6121 43.5 29.9065 43.5 25C43.5 20.0935 41.5509 15.3879 38.0815 11.9185C34.6121 8.4491 29.9065 6.5 25 6.5Z" fill="#444444"/>
<path d="M41.5 5.5C40.9696 5.5 40.4609 5.71071 40.0858 6.08579C39.7107 6.46086 39.5 6.96957 39.5 7.5C39.5 8.03043 39.7107 8.53914 40.0858 8.91421C40.4609 9.28929 40.9696 9.5 41.5 9.5C42.0304 9.5 42.5391 9.28929 42.9142 8.91421C43.2893 8.53914 43.5 8.03043 43.5 7.5C43.5 6.96957 43.2893 6.46086 42.9142 6.08579C42.5391 5.71071 42.0304 5.5 41.5 5.5Z" fill="#A3A3CD"/>
<path d="M43.5 11C43.2348 11 42.9804 11.1054 42.7929 11.2929C42.6054 11.4804 42.5 11.7348 42.5 12C42.5 12.2652 42.6054 12.5196 42.7929 12.7071C42.9804 12.8946 43.2348 13 43.5 13C43.7652 13 44.0196 12.8946 44.2071 12.7071C44.3946 12.5196 44.5 12.2652 44.5 12C44.5 11.7348 44.3946 11.4804 44.2071 11.2929C44.0196 11.1054 43.7652 11 43.5 11Z" fill="#565FA1"/>
<path d="M40.5 37C40.2348 37 39.9804 37.1054 39.7929 37.2929C39.6054 37.4804 39.5 37.7348 39.5 38C39.5 38.2652 39.6054 38.5196 39.7929 38.7071C39.9804 38.8946 40.2348 39 40.5 39C40.7652 39 41.0196 38.8946 41.2071 38.7071C41.3946 38.5196 41.5 38.2652 41.5 38C41.5 37.7348 41.3946 37.4804 41.2071 37.2929C41.0196 37.1054 40.7652 37 40.5 37ZM7.5 29.5C6.96957 29.5 6.46086 29.7107 6.08579 30.0858C5.71071 30.4609 5.5 30.9696 5.5 31.5C5.5 32.0304 5.71071 32.5391 6.08579 32.9142C6.46086 33.2893 6.96957 33.5 7.5 33.5C8.03043 33.5 8.53914 33.2893 8.91421 32.9142C9.28929 32.5391 9.5 32.0304 9.5 31.5C9.5 30.9696 9.28929 30.4609 8.91421 30.0858C8.53914 29.7107 8.03043 29.5 7.5 29.5Z" fill="#777777"/>
<path d="M12.5 42.5C12.2348 42.5 11.9804 42.6054 11.7929 42.7929C11.6054 42.9804 11.5 43.2348 11.5 43.5C11.5 43.7652 11.6054 44.0196 11.7929 44.2071C11.9804 44.3946 12.2348 44.5 12.5 44.5C12.7652 44.5 13.0196 44.3946 13.2071 44.2071C13.3946 44.0196 13.5 43.7652 13.5 43.5C13.5 43.2348 13.3946 42.9804 13.2071 42.7929C13.0196 42.6054 12.7652 42.5 12.5 42.5Z" fill="#565FA1"/>
<path d="M9.25 24.5C8.91848 24.5 8.60054 24.6317 8.36612 24.8661C8.1317 25.1005 8 25.4185 8 25.75C8 26.0815 8.1317 26.3995 8.36612 26.6339C8.60054 26.8683 8.91848 27 9.25 27C9.58152 27 9.89946 26.8683 10.1339 26.6339C10.3683 26.3995 10.5 26.0815 10.5 25.75C10.5 25.4185 10.3683 25.1005 10.1339 24.8661C9.89946 24.6317 9.58152 24.5 9.25 24.5ZM39.75 16C39.5511 16 39.3603 16.079 39.2197 16.2197C39.079 16.3603 39 16.5511 39 16.75C39 16.9489 39.079 17.1397 39.2197 17.2803C39.3603 17.421 39.5511 17.5 39.75 17.5C39.9489 17.5 40.1397 17.421 40.2803 17.2803C40.421 17.1397 40.5 16.9489 40.5 16.75C40.5 16.5511 40.421 16.3603 40.2803 16.2197C40.1397 16.079 39.9489 16 39.75 16Z" fill="#A3A3CD"/>
<path d="M25 12.8125C23.4077 12.8125 21.831 13.1261 20.36 13.7355C18.8889 14.3448 17.5522 15.2379 16.4263 16.3638C15.3004 17.4897 14.4073 18.8264 13.798 20.2975C13.1886 21.7685 12.875 23.3452 12.875 24.9375C12.875 26.5298 13.1886 28.1065 13.798 29.5775C14.4073 31.0486 15.3004 32.3853 16.4263 33.5112C17.5522 34.6371 18.8889 35.5302 20.36 36.1395C21.831 36.7489 23.4077 37.0625 25 37.0625C26.5923 37.0625 28.169 36.7489 29.64 36.1395C31.1111 35.5302 32.4478 34.6371 33.5737 33.5112C34.6996 32.3853 35.5927 31.0486 36.202 29.5775C36.8114 28.1065 37.125 26.5298 37.125 24.9375C37.125 23.3452 36.8114 21.7685 36.202 20.2975C35.5927 18.8264 34.6996 17.4897 33.5737 16.3638C32.4478 15.2379 31.1111 14.3448 29.64 13.7355C28.169 13.1261 26.5923 12.8125 25 12.8125Z" fill="#A3A3CD"/>
<path d="M25 37.4125C18.1215 37.4125 12.525 31.8165 12.525 24.9375C12.525 18.0585 18.1215 12.4625 25 12.4625C31.8785 12.4625 37.475 18.0585 37.475 24.9375C37.475 31.8165 31.8785 37.4125 25 37.4125ZM25 13.1625C18.5075 13.1625 13.225 18.4445 13.225 24.9375C13.225 31.4305 18.5075 36.7125 25 36.7125C31.4925 36.7125 36.775 31.4305 36.775 24.9375C36.775 18.4445 31.4925 13.1625 25 13.1625Z" fill="#472B29"/>
<path d="M25 14.5835C22.2815 14.5835 19.6744 15.6634 17.7522 17.5857C15.8299 19.5079 14.75 22.115 14.75 24.8335C14.75 27.552 15.8299 30.1591 17.7522 32.0813C19.6744 34.0036 22.2815 35.0835 25 35.0835C27.7185 35.0835 30.3256 34.0036 32.2478 32.0813C34.1701 30.1591 35.25 27.552 35.25 24.8335C35.25 22.115 34.1701 19.5079 32.2478 17.5857C30.3256 15.6634 27.7185 14.5835 25 14.5835Z" fill="#565FA1"/>
<path d="M34.712 22.3125C34.605 22.3125 34.506 22.243 34.473 22.1355C34.429 21.992 34.3815 21.85 34.331 21.709C34.135 21.162 33.888 20.6295 33.596 20.1245C33.5265 20.0055 33.5675 19.852 33.687 19.783C33.8065 19.7125 33.9595 19.7545 34.0285 19.8745C34.3355 20.405 34.5955 20.9655 34.8015 21.54C34.8545 21.6885 34.9045 21.8375 34.9505 21.9885C34.991 22.1205 34.917 22.2605 34.7845 22.301C34.7605 22.309 34.736 22.3125 34.712 22.3125Z" fill="#472B29"/>
<path d="M25 35.375C19.2445 35.375 14.5625 30.7065 14.5625 24.9685C14.5625 19.2305 19.2445 14.5625 25 14.5625C27.9875 14.5625 30.837 15.8425 32.818 18.074C32.9675 18.2425 33.112 18.4165 33.2505 18.5945C33.335 18.7035 33.3155 18.86 33.207 18.945C33.098 19.0305 32.941 19.0105 32.856 18.901C32.724 18.7315 32.586 18.5665 32.444 18.406C30.558 16.281 27.8445 15.062 25 15.062C19.5205 15.062 15.0625 19.506 15.0625 24.9685C15.0625 30.431 19.5205 34.875 25 34.875C30.4795 34.875 34.9375 30.431 34.9375 24.9685C34.9375 24.471 34.9 23.9705 34.8265 23.482C34.806 23.346 34.9 23.2185 35.0365 23.198C35.1755 23.1755 35.3005 23.2715 35.321 23.408C35.398 23.9205 35.4375 24.446 35.4375 24.9685C35.4375 30.7065 30.7555 35.375 25 35.375Z" fill="#472B29"/>
<path d="M30.748 21.044C30.9305 20.2085 30.851 19.1725 30.505 18.135C28.694 18.135 27.3355 19.493 27.3355 19.493C27.3355 19.493 27.3435 19.502 27.3455 19.5045C27.3135 19.504 27.2825 19.5 27.25 19.5H22.75C22.7285 19.5 22.7075 19.503 22.686 19.503C22.6875 19.501 22.6945 19.493 22.6945 19.493C22.6945 19.493 21.336 18.135 19.525 18.135C19.183 19.1615 19.1 20.187 19.275 21.0185C18.4865 21.866 18 23 18 24.25C18 26.8735 20.1265 29 22.75 29H23.2865C22.6345 29.3545 22.1635 29.9895 22.04 30.749C21.18 30.865 20.0505 30.839 19.526 30.052C18.6205 28.6935 18.1675 28.6935 17.715 28.6935C17.2625 28.6935 17.262 29.1465 17.715 29.599C18.168 30.052 18.168 30.052 18.6205 30.9575C19.0065 31.729 20.0265 32.6065 22.0005 32.289V34.0505C22.0005 34.274 22.04 34.486 22.096 34.6915C23.3085 34.98 25.347 35.222 27.9285 34.616C27.9715 34.434 28 34.2465 28 34.051V31.143C28 30.214 27.4765 29.415 26.7135 29H27.25C29.8735 29 32 26.8735 32 24.25C32 23.0125 31.523 21.8895 30.748 21.044Z" fill="#FEFDEF"/>
<path d="M24.766 35.243C23.651 35.243 22.7285 35.0995 22.0375 34.935C21.9485 34.914 21.878 34.8455 21.854 34.7575C21.783 34.4965 21.75 34.2715 21.75 34.051V32.575C19.4685 32.832 18.6105 31.498 18.3965 31.0695C17.9615 30.2 17.9615 30.2 17.538 29.776C17.1875 29.4255 17.0485 29.047 17.1655 28.7645C17.25 28.5605 17.45 28.4435 17.7145 28.4435C18.323 28.4435 18.824 28.549 19.7335 29.913C20.153 30.542 21.0715 30.6025 21.83 30.522C21.945 30.033 22.192 29.5945 22.5415 29.245C19.881 29.136 17.75 26.9375 17.75 24.25C17.75 23.029 18.1955 21.86 19.0065 20.9435C18.8535 20.0825 18.9525 19.063 19.2885 18.056C19.3225 17.954 19.418 17.885 19.5255 17.885C21.204 17.885 22.491 18.965 22.8015 19.25H27.2285C27.539 18.965 28.826 17.885 30.5045 17.885C30.612 17.885 30.7075 17.954 30.7415 18.056C31.081 19.0745 31.1775 20.104 31.017 20.971C31.8125 21.884 32.2495 23.044 32.2495 24.2505C32.2495 26.938 30.118 29.137 27.457 29.246C27.9575 29.7445 28.2495 30.423 28.2495 31.143V34.051C28.2495 34.247 28.2235 34.451 28.1705 34.674C28.149 34.7665 28.0765 34.838 27.9845 34.8595C26.791 35.14 25.7095 35.243 24.766 35.243ZM22.301 34.4825C23.507 34.751 25.3775 34.9325 27.716 34.4085C27.7385 34.282 27.75 34.164 27.75 34.051V31.143C27.75 30.3445 27.307 29.608 26.594 29.22C26.4935 29.1655 26.443 29.0495 26.471 28.9385C26.499 28.8275 26.599 28.75 26.713 28.75H27.25C29.731 28.75 31.75 26.7315 31.75 24.25C31.75 23.1265 31.3285 22.048 30.5635 21.213C30.5085 21.153 30.4865 21.07 30.5035 20.991C30.669 20.2325 30.6045 19.315 30.3235 18.39C28.8885 18.4665 27.7745 19.427 27.5525 19.632C27.507 19.7075 27.43 19.755 27.338 19.755C27.3345 19.755 27.29 19.752 27.2865 19.752L22.75 19.75C22.674 19.75 22.584 19.7165 22.529 19.6595L22.5185 19.67C22.506 19.658 21.2995 18.475 19.707 18.3895C19.4285 19.305 19.362 20.214 19.5205 20.9665C19.5375 21.046 19.514 21.129 19.4585 21.1885C18.679 22.026 18.25 23.1135 18.25 24.25C18.25 26.7315 20.269 28.75 22.75 28.75H23.2865C23.401 28.75 23.5005 28.8275 23.5285 28.9385C23.557 29.0495 23.5065 29.165 23.4055 29.22C22.803 29.547 22.395 30.1195 22.2865 30.7895C22.2685 30.8985 22.1825 30.9825 22.073 30.997C20.741 31.176 19.789 30.898 19.3175 30.1915C18.486 28.9445 18.1115 28.9445 17.7145 28.9445C17.646 28.9445 17.6245 28.9605 17.624 28.9605C17.6115 28.9925 17.6455 29.178 17.891 29.4235C18.3725 29.905 18.39 29.94 18.8435 30.847C19.028 31.215 19.799 32.3935 21.96 32.043C22.0335 32.0325 22.106 32.0525 22.162 32.0995C22.2175 32.1475 22.25 32.2165 22.25 32.29V34.0515C22.25 34.186 22.2665 34.3255 22.301 34.4825Z" fill="#472B29"/>
<path d="M30.2185 25.681C29.7685 26.678 28.7805 27.507 27.0415 27.646L30.2185 25.681Z" fill="#FEFDEF"/>
<path d="M27.0415 27.771C26.977 27.771 26.9225 27.721 26.917 27.656C26.9115 27.587 26.9625 27.527 27.0315 27.5215C28.934 27.369 29.7525 26.408 30.1045 25.6295C30.1335 25.566 30.207 25.538 30.27 25.567C30.3325 25.5955 30.361 25.669 30.3325 25.732C29.796 26.9205 28.631 27.644 27.0515 27.7705C27.0485 27.771 27.045 27.771 27.0415 27.771Z" fill="#472B29"/>
<path d="M30.4795 23.705C30.535 24.0815 30.534 24.481 30.4645 24.876L30.4795 23.705Z" fill="#FEFDEF"/>
<path d="M30.465 25.001C30.4575 25.001 30.4505 25.0005 30.443 24.999C30.375 24.9875 30.3295 24.9225 30.3415 24.8545C30.406 24.4875 30.411 24.096 30.356 23.723C30.3455 23.655 30.393 23.591 30.461 23.5815C30.5295 23.5715 30.593 23.618 30.603 23.687C30.663 24.0915 30.6575 24.499 30.5875 24.8975C30.5775 24.9585 30.5245 25.001 30.465 25.001Z" fill="#472B29"/>
<path d="M29.5415 21.9375C29.858 22.163 30.1145 22.527 30.2855 22.965L29.5415 21.9375Z" fill="#FEFDEF"/>
<path d="M30.2855 23.0905C30.2355 23.0905 30.1885 23.06 30.169 23.011C30.002 22.583 29.76 22.247 29.469 22.04C29.413 22 29.3995 21.922 29.4395 21.8655C29.48 21.809 29.5575 21.7965 29.614 21.8355C29.945 22.0715 30.2175 22.4465 30.402 22.92C30.427 22.9845 30.395 23.0565 30.331 23.082C30.316 23.0875 30.301 23.0905 30.2855 23.0905Z" fill="#472B29"/>
</svg>
