<svg width="51" height="63" viewBox="0 0 51 63" fill="none" xmlns="http://www.w3.org/2000/svg">
<path d="M4.64135 55.9882L0 0.574219H51L46.354 55.9796L25.4688 62.1426L4.64135 55.9882Z" fill="#E44D26"/>
<path d="M25.5 57.4316L42.3757 52.4511L46.3465 5.10571H25.5V57.4316Z" fill="#F16529"/>
<path d="M25.5 25.6579H17.0511L16.4683 18.6975H25.5V11.9012H9.49042L9.64276 13.725L11.2124 32.4535H25.5V25.6579ZM25.5 43.3077L25.4717 43.3157L18.3617 41.2714L17.9069 35.8517H11.4975L12.3919 46.5228L25.4706 50.3878L25.5 50.3786V43.3077Z" fill="#EBEBEB"/>
<path d="M25.478 25.6578V32.4535H33.34L32.599 41.2676L25.478 43.3138V50.384L38.567 46.5227L38.6628 45.374L40.1632 27.4822L40.319 25.6578H38.5982H25.478ZM25.478 11.9012V18.6975H40.9001L41.0277 17.1698L41.3191 13.725L41.472 11.9012H25.478Z" fill="white"/>
</svg>
