<svg width="50" height="50" viewBox="0 0 50 50" fill="none" xmlns="http://www.w3.org/2000/svg">
<path d="M6.5 15.5C7.05228 15.5 7.5 15.0523 7.5 14.5C7.5 13.9477 7.05228 13.5 6.5 13.5C5.94771 13.5 5.5 13.9477 5.5 14.5C5.5 15.0523 5.94771 15.5 6.5 15.5Z" fill="#EE3E54"/>
<path d="M38.5 7C38.7761 7 39 6.77614 39 6.5C39 6.22386 38.7761 6 38.5 6C38.2239 6 38 6.22386 38 6.5C38 6.77614 38.2239 7 38.5 7Z" fill="#F1BC19"/>
<path d="M25 43.5C35.2173 43.5 43.5 35.2173 43.5 25C43.5 14.7827 35.2173 6.5 25 6.5C14.7827 6.5 6.5 14.7827 6.5 25C6.5 35.2173 14.7827 43.5 25 43.5Z" fill="#444444"/>
<path d="M41.5 9.5C42.6046 9.5 43.5 8.60457 43.5 7.5C43.5 6.39543 42.6046 5.5 41.5 5.5C40.3954 5.5 39.5 6.39543 39.5 7.5C39.5 8.60457 40.3954 9.5 41.5 9.5Z" fill="#F47C22"/>
<path d="M43.5 13C44.0523 13 44.5 12.5523 44.5 12C44.5 11.4477 44.0523 11 43.5 11C42.9477 11 42.5 11.4477 42.5 12C42.5 12.5523 42.9477 13 43.5 13Z" fill="#E4273E"/>
<path d="M40.5 39C41.0523 39 41.5 38.5523 41.5 38C41.5 37.4477 41.0523 37 40.5 37C39.9477 37 39.5 37.4477 39.5 38C39.5 38.5523 39.9477 39 40.5 39Z" fill="#FBCD59"/>
<path d="M7.5 33.5C8.60457 33.5 9.5 32.6046 9.5 31.5C9.5 30.3954 8.60457 29.5 7.5 29.5C6.39543 29.5 5.5 30.3954 5.5 31.5C5.5 32.6046 6.39543 33.5 7.5 33.5Z" fill="#B11E93"/>
<path d="M12.5 44.5C13.0523 44.5 13.5 44.0523 13.5 43.5C13.5 42.9477 13.0523 42.5 12.5 42.5C11.9477 42.5 11.5 42.9477 11.5 43.5C11.5 44.0523 11.9477 44.5 12.5 44.5Z" fill="#EE3E54"/>
<path d="M9.25 28C9.94036 28 10.5 27.4404 10.5 26.75C10.5 26.0596 9.94036 25.5 9.25 25.5C8.55964 25.5 8 26.0596 8 26.75C8 27.4404 8.55964 28 9.25 28Z" fill="white"/>
<path d="M10.5 34C10.7761 34 11 33.7761 11 33.5C11 33.2239 10.7761 33 10.5 33C10.2239 33 10 33.2239 10 33.5C10 33.7761 10.2239 34 10.5 34Z" fill="#EF9922"/>
<path d="M40 17.5C40.2761 17.5 40.5 17.2761 40.5 17C40.5 16.7239 40.2761 16.5 40 16.5C39.7239 16.5 39.5 16.7239 39.5 17C39.5 17.2761 39.7239 17.5 40 17.5Z" fill="#DB1A58"/>
<path d="M36.15 16.85V33.15C36.15 34.805 34.805 36.15 33.15 36.15H16.85C15.195 36.15 13.85 34.805 13.85 33.15V16.85C13.85 15.195 15.195 13.85 16.85 13.85H33.15C34.805 13.85 36.15 15.195 36.15 16.85Z" fill="#3231C7"/>
<path d="M36.15 24.02V33.15C36.15 34.805 34.805 36.15 33.15 36.15H16.85C15.195 36.15 13.85 34.805 13.85 33.15V16.85C13.85 15.195 15.195 13.85 16.85 13.85H25.98C30.3 16.145 33.855 19.7 36.15 24.02Z" fill="#7228AD"/>
<path d="M35 35.5C35 35.505 35 35.505 35 35.51C34.49 35.91 33.85 36.15 33.15 36.15H16.85C15.195 36.15 13.85 34.805 13.85 33.15V16.85C13.85 16.15 14.09 15.51 14.49 15C14.495 15 14.495 15 14.5 15C25.82 15 35 24.18 35 35.5Z" fill="#B11E93"/>
<path d="M31 35.5C31 35.72 30.995 35.935 30.985 36.15H16.85C15.195 36.15 13.85 34.805 13.85 33.15V19.015C14.065 19.005 14.28 19 14.5 19C23.615 19 31 26.385 31 35.5Z" fill="#DB1A58"/>
<path d="M27 35.5C27 35.715 26.995 35.935 26.985 36.15H16.85C15.195 36.15 13.85 34.805 13.85 33.15V23.015C14.065 23.005 14.285 23 14.5 23C21.405 23 27 28.595 27 35.5Z" fill="#E4273E"/>
<path d="M23.5 35.5C23.5 35.72 23.49 35.935 23.475 36.15H16.85C15.195 36.15 13.85 34.805 13.85 33.15V26.525C14.065 26.51 14.28 26.5 14.5 26.5C19.47 26.5 23.5 30.53 23.5 35.5Z" fill="#F47C22"/>
<path d="M20.5 35.5C20.5 35.72 20.49 35.935 20.465 36.15H16.85C15.195 36.15 13.85 34.805 13.85 33.15V29.535C14.065 29.51 14.28 29.5 14.5 29.5C17.815 29.5 20.5 32.185 20.5 35.5Z" fill="#EF9922"/>
<path d="M33.15 36.5H16.85C15.003 36.5 13.5 34.997 13.5 33.15V16.85C13.5 15.003 15.003 13.5 16.85 13.5H33.15C34.997 13.5 36.5 15.003 36.5 16.85V33.15C36.5 34.997 34.997 36.5 33.15 36.5ZM16.85 14.2C15.3885 14.2 14.2 15.3885 14.2 16.85V33.15C14.2 34.611 15.3885 35.8 16.85 35.8H33.15C34.6115 35.8 35.8 34.6115 35.8 33.15V16.85C35.8 15.389 34.6115 14.2 33.15 14.2H16.85Z" fill="#472B29"/>
<path d="M24.995 32.725C23.004 32.725 22.263 32.7195 21.506 32.685C20.812 32.654 20.2715 32.5495 19.7535 32.3465C19.2505 32.1525 18.857 31.897 18.477 31.517C18.1005 31.14 17.8445 30.746 17.648 30.2405C17.4505 29.737 17.346 29.1965 17.3095 28.488C17.275 27.7255 17.2695 26.985 17.2695 24.9995C17.2695 23.0175 17.275 22.2785 17.3095 21.5155C17.3405 20.8215 17.445 20.2815 17.6475 19.7635C17.8445 19.253 18.1 18.8595 18.477 18.487C18.854 18.1105 19.2475 17.8545 19.754 17.6575C20.2715 17.455 20.812 17.351 21.506 17.319C22.2885 17.284 23.0385 17.274 24.995 17.274C26.952 17.274 27.7005 17.284 28.4785 17.319C29.1725 17.3505 29.713 17.4545 30.2315 17.6575C30.742 17.8545 31.135 18.11 31.5075 18.487C31.881 18.856 32.1385 19.249 32.342 19.7635C32.5405 20.2865 32.644 20.8275 32.6755 21.5155C32.7105 22.3055 32.7205 23.0545 32.7205 24.999C32.7205 26.9475 32.7105 27.6975 32.6755 28.488C32.644 29.1765 32.541 29.717 32.342 30.2405C32.1385 30.7495 31.8805 31.1435 31.5075 31.5165C31.136 31.8925 30.744 32.1485 30.236 32.346C29.7115 32.5485 29.1695 32.653 28.4785 32.684C27.7215 32.7195 26.982 32.725 24.995 32.725ZM24.34 18.725C22.964 18.725 22.2085 18.7355 21.5525 18.7645C20.8815 18.7955 20.5115 18.908 20.264 19.0025C19.9555 19.1235 19.7345 19.2675 19.5015 19.5015C19.268 19.7345 19.124 19.954 19.005 20.2595C18.9095 20.5085 18.7965 20.8795 18.7655 21.552C18.7315 22.305 18.726 22.9995 18.726 24.9955C18.726 26.9955 18.7315 27.6905 18.7655 28.443C18.7965 29.111 18.909 29.481 19.004 29.729C19.1235 30.0385 19.267 30.2595 19.499 30.4915C19.7355 30.724 19.957 30.8675 20.264 30.9885C20.5035 31.0825 20.866 31.194 21.552 31.226C22.332 31.261 23.072 31.2705 24.996 31.2705C26.924 31.2705 27.665 31.261 28.4435 31.226C29.146 31.1935 29.517 31.0745 29.735 30.9875C30.037 30.8705 30.257 30.7285 30.492 30.4985C30.725 30.2605 30.8695 30.039 30.9925 29.7315C31.0855 29.488 31.195 29.123 31.227 28.444C31.2615 27.6575 31.2715 26.9165 31.2715 24.9955C31.2715 23.078 31.2615 22.338 31.227 21.5525C31.1955 20.8745 31.086 20.5095 30.9935 20.2675C30.874 19.9575 30.731 19.737 30.4985 19.505C30.2495 19.26 30.047 19.13 29.7245 19.0065C29.4925 18.914 29.1355 18.8025 28.4445 18.77C27.677 18.735 26.9355 18.7255 24.9965 18.7255H24.34V18.725Z" fill="white"/>
<path d="M24.995 17.4C26.9495 17.4 27.6975 17.4095 28.473 17.445C29.1525 17.4755 29.6805 17.5775 30.187 17.775C30.6795 17.965 31.059 18.2115 31.4205 18.5775C31.78 18.9325 32.0285 19.3125 32.2245 19.807C32.419 20.319 32.5195 20.8475 32.5505 21.5215C32.5855 22.3095 32.595 23.0575 32.595 25C32.595 26.9465 32.5855 27.695 32.5505 28.483C32.5195 29.158 32.419 29.6865 32.2265 30.193C32.0285 30.6875 31.7795 31.0685 31.418 31.43C31.06 31.7925 30.6815 32.0395 30.1915 32.23C29.68 32.4275 29.15 32.5295 28.4735 32.56C27.719 32.5945 26.9805 32.6 24.9955 32.6C23.0065 32.6 22.2665 32.5945 21.512 32.56C20.8325 32.5295 20.3045 32.428 19.799 32.23C19.3135 32.0425 18.9335 31.7955 18.5665 31.429C18.2025 31.0645 17.9555 30.6845 17.765 30.195C17.573 29.7045 17.4715 29.176 17.4355 28.4835C17.401 27.7225 17.3955 26.983 17.3955 24.9995C17.3955 23.02 17.401 22.2815 17.4355 21.521C17.466 20.8415 17.5675 20.3135 17.7655 19.8075C17.9555 19.315 18.202 18.935 18.567 18.575C18.9305 18.2115 19.311 17.9645 19.8005 17.774C20.305 17.577 20.833 17.475 21.5125 17.444C22.2925 17.4095 23.041 17.4 24.995 17.4ZM24.995 31.395C26.9255 31.395 27.6675 31.3855 28.4485 31.3505C29.17 31.317 29.554 31.1935 29.7775 31.104C30.098 30.98 30.33 30.8305 30.582 30.5835C30.8255 30.335 30.9775 30.1015 31.1085 29.7735C31.204 29.523 31.318 29.146 31.35 28.449C31.385 27.661 31.3945 26.9185 31.3945 24.995C31.3945 23.0755 31.385 22.334 31.35 21.546C31.3175 20.8505 31.204 20.4735 31.1085 20.221C30.984 19.8985 30.8275 19.658 30.584 19.414C30.325 19.1595 30.104 19.017 29.7715 18.89C29.5285 18.793 29.159 18.6775 28.449 18.644C27.6795 18.609 26.937 18.5995 24.9955 18.5995H24.34C22.962 18.5995 22.205 18.61 21.546 18.639C20.858 18.671 20.4755 18.787 20.217 18.8855C19.8965 19.011 19.656 19.1685 19.4125 19.412C19.169 19.655 19.012 19.8945 18.887 20.2145C18.7885 20.471 18.6715 20.8545 18.6395 21.5455C18.605 22.301 18.5995 22.996 18.5995 24.9945C18.5995 26.9965 18.6045 27.693 18.6395 28.448C18.6715 29.134 18.788 29.516 18.886 29.773C19.012 30.1 19.164 30.3335 19.411 30.5805C19.6565 30.8215 19.8975 30.978 20.2175 31.1035C20.4655 31.2005 20.841 31.3165 21.5455 31.3495C22.3275 31.3855 23.069 31.395 24.995 31.395ZM24.995 17.15C22.9995 17.15 22.268 17.1605 21.5005 17.195C20.792 17.227 20.2395 17.3345 19.709 17.5415C19.1855 17.7455 18.779 18.01 18.3895 18.3985C17.9995 18.784 17.7345 19.191 17.5315 19.718C17.3235 20.249 17.2165 20.802 17.185 21.51C17.1505 22.2785 17.145 23.0195 17.145 24.9995C17.145 26.984 17.1505 27.7255 17.185 28.4945C17.2225 29.2165 17.3295 29.769 17.5315 30.286C17.735 30.8085 18 31.2155 18.389 31.6055C18.782 31.9985 19.1895 32.2625 19.7085 32.463C20.2395 32.671 20.7925 32.778 21.5005 32.8095C22.269 32.8445 23.0105 32.85 24.995 32.85C26.975 32.85 27.7155 32.845 28.4845 32.8095C29.1895 32.778 29.744 32.671 30.2815 32.463C30.807 32.2585 31.212 31.994 31.596 31.6055C31.9815 31.22 32.2475 30.814 32.459 30.2855C32.6635 29.748 32.7685 29.1955 32.801 28.494C32.835 27.726 32.846 26.994 32.846 24.9995C32.846 23.01 32.8355 22.278 32.801 21.51C32.769 20.809 32.664 20.257 32.4585 19.7175C32.248 19.1865 31.982 18.7795 31.5965 18.399C31.211 18.009 30.8045 17.7445 30.277 17.541C29.7455 17.333 29.1925 17.2265 28.4845 17.1945C27.7215 17.1605 26.991 17.15 24.995 17.15ZM24.995 31.145C23.074 31.145 22.335 31.1355 21.557 31.1005C20.889 31.0695 20.539 30.9615 20.309 30.8715C20.018 30.757 19.809 30.6215 19.5865 30.4025C19.366 30.182 19.234 29.9795 19.1195 29.6835C19.0285 29.4455 18.92 29.086 18.8895 28.4365C18.8555 27.6905 18.85 26.996 18.85 24.9945C18.85 22.997 18.8555 22.3035 18.8895 21.557C18.92 20.903 19.0285 20.544 19.1205 20.304C19.233 20.017 19.369 19.809 19.5895 19.589C19.8095 19.3685 20.0175 19.2325 20.3085 19.1185C20.545 19.0285 20.9045 18.919 21.558 18.889C22.21 18.861 22.965 18.85 24.34 18.85H24.9955C26.9335 18.85 27.673 18.8595 28.438 18.894C29.111 18.9255 29.4545 19.0325 29.679 19.1225C29.985 19.2395 30.174 19.3615 30.409 19.5925C30.627 19.8105 30.763 20.0195 30.876 20.3115C30.964 20.543 31.0705 20.8965 31.101 21.558C31.1355 22.3365 31.1455 23.076 31.1455 24.9955C31.1455 26.919 31.1355 27.6595 31.101 28.4385C31.07 29.0995 30.9645 29.452 30.8755 29.6855C30.7585 29.9785 30.625 30.1835 30.404 30.4095C30.1815 30.628 29.9785 30.7595 29.688 30.8715C29.476 30.956 29.123 31.0695 28.4375 31.101C27.66 31.1355 26.92 31.145 24.995 31.145Z" fill="#472B29"/>
<path d="M29.25 21.625C28.7675 21.625 28.375 21.2325 28.375 20.75C28.375 20.2675 28.7675 19.875 29.25 19.875H29.2505C29.484 19.875 29.7035 19.966 29.8685 20.131C30.034 20.2965 30.125 20.516 30.125 20.7495C30.125 21.2325 29.7325 21.625 29.25 21.625Z" fill="white"/>
<path d="M29.25 20C29.664 20 30 20.336 30 20.75C30 21.164 29.664 21.5 29.25 21.5C28.836 21.5 28.5 21.164 28.5 20.75C28.5 20.336 28.836 20.0005 29.25 20ZM29.25 19.75C28.6985 19.7505 28.25 20.199 28.25 20.75C28.25 21.3015 28.6985 21.75 29.25 21.75C29.8015 21.75 30.25 21.3015 30.25 20.75C30.25 20.1985 29.8015 19.75 29.25 19.75Z" fill="#472B29"/>
<path d="M24.994 20.752C22.6465 20.752 20.7435 22.655 20.7435 25.0025C20.7435 27.35 22.6465 29.252 24.994 29.252C27.3415 29.252 29.2435 27.3495 29.2435 25.0025C29.2435 22.6555 27.341 20.752 24.994 20.752ZM24.994 22.2525C26.5125 22.2525 27.744 23.4835 27.744 25.0025C27.744 26.521 26.5125 27.7525 24.994 27.7525C23.475 27.7525 22.244 26.521 22.244 25.0025C22.244 23.4835 23.475 22.2525 24.994 22.2525Z" fill="white"/>
<path d="M24.994 29.377C22.5815 29.377 20.6185 27.4145 20.6185 25.002C20.6185 22.5895 22.5815 20.627 24.994 20.627C27.406 20.627 29.3685 22.5895 29.3685 25.002C29.3685 27.4145 27.406 29.377 24.994 29.377ZM24.994 20.877C22.719 20.877 20.8685 22.7275 20.8685 25.002C20.8685 27.2765 22.719 29.127 24.994 29.127C27.2685 29.127 29.1185 27.2765 29.1185 25.002C29.1185 22.7275 27.2685 20.877 24.994 20.877ZM24.994 27.877C23.4085 27.877 22.119 26.587 22.119 25.002C22.119 23.417 23.4085 22.127 24.994 22.127C26.5795 22.127 27.869 23.417 27.869 25.002C27.869 26.587 26.5795 27.877 24.994 27.877ZM24.994 22.377C23.5465 22.377 22.369 23.5545 22.369 25.002C22.369 26.4495 23.5465 27.627 24.994 27.627C26.4415 27.627 27.619 26.4495 27.619 25.002C27.619 23.5545 26.4415 22.377 24.994 22.377Z" fill="#472B29"/>
</svg>
