<svg width="52" height="55" viewBox="0 0 52 55" fill="none" xmlns="http://www.w3.org/2000/svg">
<path d="M0 0.0637207H51.9996V54.3274H0V0.0637207Z" fill="#F0DB4F"/>
<path d="M47.3256 41.9957C46.9447 39.5202 45.3978 37.4409 40.8157 35.502C39.2239 34.7387 37.4494 34.1921 36.9206 32.9333C36.7329 32.2007 36.7079 31.7881 36.8267 31.3446C37.1678 29.9055 38.8139 29.4569 40.1187 29.8695C40.959 30.1634 41.7545 30.8392 42.2342 31.9172C44.4781 30.401 44.4736 30.4109 46.0404 29.3689C45.4668 28.4408 45.1606 28.0126 44.7851 27.6155C43.4355 26.0425 41.5966 25.2323 38.6557 25.2943L37.1237 25.5011C35.6558 25.8882 34.2568 26.6922 33.4364 27.7703C30.9748 30.6849 31.6768 35.7859 34.6721 37.8852C37.623 40.1964 41.958 40.7222 42.5117 42.8835C43.0505 45.5293 40.6483 46.3859 38.2607 46.0816C36.5011 45.6997 35.5224 44.7664 34.4644 43.0694C32.5171 44.2454 32.5171 44.2454 30.515 45.447C30.9898 46.5302 31.4886 47.0204 32.2845 47.9589C36.0512 51.9459 45.4771 51.75 47.1678 45.7153C47.2363 45.5081 47.6916 44.1262 47.3256 41.9957ZM27.8503 25.6138H22.9865L22.9666 38.7356C22.9666 41.5263 23.1049 44.0846 22.67 44.8687C21.9585 46.411 20.1146 46.2198 19.2742 45.9207C18.419 45.4821 17.984 44.8583 17.4802 43.9767C17.3419 43.7235 17.238 43.5276 17.2031 43.5124L13.2487 46.0395C13.9062 47.4478 14.8749 48.6702 16.1156 49.4643C17.9691 50.6251 20.4602 50.981 23.0655 50.3568C24.7611 49.8414 26.224 48.7738 26.99 47.1488C28.0974 45.0183 27.8598 42.4396 27.8499 39.5874C27.8748 34.9341 27.8503 30.2818 27.8503 25.6138Z" fill="#323330"/>
</svg>
