<svg width="50" height="50" viewBox="0 0 50 50" fill="none" xmlns="http://www.w3.org/2000/svg">
<path d="M6.5 13.5C6.23478 13.5 5.98043 13.6054 5.79289 13.7929C5.60536 13.9804 5.5 14.2348 5.5 14.5C5.5 14.7652 5.60536 15.0196 5.79289 15.2071C5.98043 15.3946 6.23478 15.5 6.5 15.5C6.76522 15.5 7.01957 15.3946 7.20711 15.2071C7.39464 15.0196 7.5 14.7652 7.5 14.5C7.5 14.2348 7.39464 13.9804 7.20711 13.7929C7.01957 13.6054 6.76522 13.5 6.5 13.5Z" fill="#ADD4A1"/>
<path d="M38.5 6C38.3674 6 38.2402 6.05268 38.1464 6.14645C38.0527 6.24021 38 6.36739 38 6.5C38 6.63261 38.0527 6.75979 38.1464 6.85355C38.2402 6.94732 38.3674 7 38.5 7C38.6326 7 38.7598 6.94732 38.8536 6.85355C38.9473 6.75979 39 6.63261 39 6.5C39 6.36739 38.9473 6.24021 38.8536 6.14645C38.7598 6.05268 38.6326 6 38.5 6Z" fill="#5ABA9E"/>
<path d="M25 6.5C20.0935 6.5 15.3879 8.4491 11.9185 11.9185C8.4491 15.3879 6.5 20.0935 6.5 25C6.5 29.9065 8.4491 34.6121 11.9185 38.0815C15.3879 41.5509 20.0935 43.5 25 43.5C29.9065 43.5 34.6121 41.5509 38.0815 38.0815C41.5509 34.6121 43.5 29.9065 43.5 25C43.5 20.0935 41.5509 15.3879 38.0815 11.9185C34.6121 8.4491 29.9065 6.5 25 6.5Z" fill="#444444"/>
<path d="M41.5 5.5C40.9696 5.5 40.4609 5.71071 40.0858 6.08579C39.7107 6.46086 39.5 6.96957 39.5 7.5C39.5 8.03043 39.7107 8.53914 40.0858 8.91421C40.4609 9.28929 40.9696 9.5 41.5 9.5C42.0304 9.5 42.5391 9.28929 42.9142 8.91421C43.2893 8.53914 43.5 8.03043 43.5 7.5C43.5 6.96957 43.2893 6.46086 42.9142 6.08579C42.5391 5.71071 42.0304 5.5 41.5 5.5Z" fill="#5ABA9E"/>
<path d="M43.5 11C43.2348 11 42.9804 11.1054 42.7929 11.2929C42.6054 11.4804 42.5 11.7348 42.5 12C42.5 12.2652 42.6054 12.5196 42.7929 12.7071C42.9804 12.8946 43.2348 13 43.5 13C43.7652 13 44.0196 12.8946 44.2071 12.7071C44.3946 12.5196 44.5 12.2652 44.5 12C44.5 11.7348 44.3946 11.4804 44.2071 11.2929C44.0196 11.1054 43.7652 11 43.5 11Z" fill="#ADD4A1"/>
<path d="M40.5 37C40.2348 37 39.9804 37.1054 39.7929 37.2929C39.6054 37.4804 39.5 37.7348 39.5 38C39.5 38.2652 39.6054 38.5196 39.7929 38.7071C39.9804 38.8946 40.2348 39 40.5 39C40.7652 39 41.0196 38.8946 41.2071 38.7071C41.3946 38.5196 41.5 38.2652 41.5 38C41.5 37.7348 41.3946 37.4804 41.2071 37.2929C41.0196 37.1054 40.7652 37 40.5 37ZM7.5 29.5C6.96957 29.5 6.46086 29.7107 6.08579 30.0858C5.71071 30.4609 5.5 30.9696 5.5 31.5C5.5 32.0304 5.71071 32.5391 6.08579 32.9142C6.46086 33.2893 6.96957 33.5 7.5 33.5C8.03043 33.5 8.53914 33.2893 8.91421 32.9142C9.28929 32.5391 9.5 32.0304 9.5 31.5C9.5 30.9696 9.28929 30.4609 8.91421 30.0858C8.53914 29.7107 8.03043 29.5 7.5 29.5Z" fill="#5ABA9E"/>
<path d="M12.5 42.5C12.2348 42.5 11.9804 42.6054 11.7929 42.7929C11.6054 42.9804 11.5 43.2348 11.5 43.5C11.5 43.7652 11.6054 44.0196 11.7929 44.2071C11.9804 44.3946 12.2348 44.5 12.5 44.5C12.7652 44.5 13.0196 44.3946 13.2071 44.2071C13.3946 44.0196 13.5 43.7652 13.5 43.5C13.5 43.2348 13.3946 42.9804 13.2071 42.7929C13.0196 42.6054 12.7652 42.5 12.5 42.5Z" fill="#ADD4A1"/>
<path d="M9.25 25.5C8.91848 25.5 8.60054 25.6317 8.36612 25.8661C8.1317 26.1005 8 26.4185 8 26.75C8 27.0815 8.1317 27.3995 8.36612 27.6339C8.60054 27.8683 8.91848 28 9.25 28C9.58152 28 9.89946 27.8683 10.1339 27.6339C10.3683 27.3995 10.5 27.0815 10.5 26.75C10.5 26.4185 10.3683 26.1005 10.1339 25.8661C9.89946 25.6317 9.58152 25.5 9.25 25.5Z" fill="#FDFCEE"/>
<path d="M10.5 33C10.3674 33 10.2402 33.0527 10.1464 33.1464C10.0527 33.2402 10 33.3674 10 33.5C10 33.6326 10.0527 33.7598 10.1464 33.8536C10.2402 33.9473 10.3674 34 10.5 34C10.6326 34 10.7598 33.9473 10.8536 33.8536C10.9473 33.7598 11 33.6326 11 33.5C11 33.3674 10.9473 33.2402 10.8536 33.1464C10.7598 33.0527 10.6326 33 10.5 33Z" fill="#5ABA9E"/>
<path d="M40 16.5C39.8674 16.5 39.7402 16.5527 39.6464 16.6464C39.5527 16.7402 39.5 16.8674 39.5 17C39.5 17.1326 39.5527 17.2598 39.6464 17.3536C39.7402 17.4473 39.8674 17.5 40 17.5C40.1326 17.5 40.2598 17.4473 40.3536 17.3536C40.4473 17.2598 40.5 17.1326 40.5 17C40.5 16.8674 40.4473 16.7402 40.3536 16.6464C40.2598 16.5527 40.1326 16.5 40 16.5Z" fill="white"/>
<path d="M25.75 12.5C19.25 12.5 14 17.75 14 24.25C14 26.5 14.6 28.55 15.7 30.35L14 35.55L19.05 33.9C20.95 35.25 23.25 36 25.75 36C32.25 36 37.5 30.75 37.5 24.25C37.5 17.75 32.25 12.5 25.75 12.5Z" fill="#ADD4A1"/>
<path d="M25.75 36.35C23.3 36.35 21 35.65 19 34.3L14.15 35.9C14 35.95 13.9 35.9 13.8 35.8C13.7 35.7 13.65 35.55 13.7 35.45L15.35 30.4C14.25 28.55 13.7 26.45 13.7 24.25C13.7 17.6 19.15 12.15 25.8 12.15C32.45 12.15 37.9 17.6 37.9 24.25C37.9 30.9 32.4 36.35 25.75 36.35ZM19.05 33.55C19.1 33.55 19.2 33.55 19.25 33.6C21.15 34.95 23.4 35.65 25.75 35.65C32.05 35.65 37.15 30.55 37.15 24.25C37.15 17.95 32.05 12.85 25.75 12.85C19.45 12.85 14.35 17.95 14.35 24.25C14.35 26.35 14.9 28.4 16 30.15C16.05 30.25 16.05 30.35 16.05 30.45L14.55 35L18.9 33.55C18.95 33.55 19 33.55 19.05 33.55Z" fill="#472B29"/>
<path d="M33.3 18.55C31.55 16.3 28.85 14.8 25.75 14.8C20.55 14.8 16.3 19.05 16.3 24.25C16.3 26.2 16.9 28.05 17.95 29.55L16.95 32.65L19.95 31.7C21.55 32.95 23.6 33.75 25.8 33.75C31 33.75 35.25 29.5 35.25 24.3C35.25 23.75 35.2 23.25 35.1 22.7" fill="#5ABA9E"/>
<path d="M25.75 33.95C23.6 33.95 21.55 33.25 19.85 31.95L17 32.9C16.9 32.95 16.8 32.9 16.75 32.85C16.7 32.8 16.65 32.7 16.7 32.6L17.65 29.6C16.6 28 16.05 26.15 16.05 24.25C16.05 18.9 20.4 14.55 25.75 14.55C28.8 14.55 31.65 15.95 33.5 18.4C33.6 18.5 33.55 18.65 33.45 18.75C33.35 18.85 33.2 18.8 33.1 18.7C31.35 16.4 28.65 15.05 25.75 15.05C20.7 15.05 16.55 19.2 16.55 24.25C16.55 26.1 17.1 27.9 18.15 29.4C18.2 29.45 18.2 29.55 18.2 29.6L17.35 32.25L19.85 31.45C19.95 31.4 20 31.45 20.1 31.5C21.75 32.8 23.7 33.5 25.8 33.5C30.85 33.5 35 29.35 35 24.3C35 23.8 34.95 23.25 34.85 22.75C34.85 22.6 34.9 22.5 35.05 22.45C35.2 22.45 35.3 22.5 35.35 22.65C35.45 23.2 35.5 23.75 35.5 24.25C35.45 29.6 31.1 33.95 25.75 33.95Z" fill="#472B29"/>
<path d="M34.75 21.3C34.55 20.75 34.3 20.2 34.05 19.65L34.75 21.3Z" fill="#5ABA9E"/>
<path d="M34.75 21.55C34.65 21.55 34.55 21.5 34.5 21.4C34.3 20.85 34.1 20.3 33.8 19.8C33.75 19.7 33.8 19.55 33.9 19.45C34 19.4 34.15 19.45 34.25 19.55C34.55 20.1 34.8 20.65 35 21.2C35.05 21.35 34.95 21.45 34.85 21.5C34.8 21.55 34.75 21.55 34.75 21.55Z" fill="#472B29"/>
<path d="M29.55 29.35C28.85 29.35 27.85 29.1 26.4 28.5C24.5 27.75 22.6 26.2 21.05 24.1L20.95 24C20.5 23.4 19.7 22.2 19.7 21C19.65 20.1 20.05 19.2 20.8 18.6C21.05 18.4 21.4 18.3 21.7 18.3H21.8H22.15C22.15 18.3 22.2 18.3 22.25 18.3C22.3 18.3 22.3 18.3 22.35 18.3C22.4 18.3 22.45 18.35 22.5 18.4C22.6 18.5 22.65 18.6 22.7 18.75L23.1 19.6C23.4 20.25 23.65 20.85 23.7 20.9C23.75 20.95 23.85 21.15 23.75 21.35C23.65 21.5 23.55 21.65 23.45 21.75C23.4 21.85 23.35 21.9 23.3 21.95L23.15 22C23.1 22.05 22.95 22.2 22.85 22.3C22.6 22.55 22.55 22.85 22.7 23.1C23.2 23.9 23.8 24.6 24.55 25.2C25.3 25.85 26.15 26.35 27.1 26.7L27.2 26.75C27.3 26.8 27.45 26.85 27.6 26.85C27.85 26.85 28.05 26.75 28.2 26.6C28.45 26.3 28.7 26 28.95 25.7L29.1 25.5C29.15 25.45 29.25 25.3 29.45 25.3C29.5 25.3 29.6 25.3 29.65 25.35C29.9 25.45 31.3 26.05 31.8 26.3L32 26.4L32.25 26.5C32.35 26.55 32.4 26.6 32.4 26.7C32.4 27.15 32.35 27.55 32.2 27.95C31.95 28.55 30.95 29.15 30.15 29.3C30 29.35 29.8 29.35 29.55 29.35Z" fill="#FDFCEE"/>
<path d="M22.2 18.55C22.25 18.55 22.25 18.55 22.3 18.55C22.35 18.6 22.4 18.7 22.45 18.8L22.75 19.45C23.15 20.3 23.4 20.95 23.45 21.05C23.5 21.15 23.5 21.2 23.5 21.25C23.45 21.4 23.35 21.5 23.25 21.6L23.2 21.65C23.15 21.7 23.05 21.8 23 21.85C22.95 21.9 22.8 22.05 22.7 22.15C22.35 22.45 22.3 22.9 22.55 23.25C23.05 24.05 23.7 24.8 24.45 25.4C25.2 26.05 26.1 26.55 27.05 26.9L27.15 26.95C27.3 27 27.45 27.05 27.6 27.05C27.9 27.05 28.2 26.95 28.4 26.75C28.65 26.45 28.95 26.15 29.15 25.85L29.3 25.65C29.35 25.6 29.4 25.55 29.45 25.55C29.5 25.55 29.55 25.55 29.6 25.6C29.85 25.7 31.2 26.3 31.75 26.55L31.95 26.65L32.2 26.75C32.2 27.15 32.15 27.55 32 27.9C31.8 28.45 30.9 28.95 30.15 29.1C30 29.15 29.85 29.15 29.6 29.15C29.1 29.15 28.25 29 26.5 28.35C24.65 27.65 22.75 26.1 21.25 24.05L21.15 23.95C20.7 23.35 19.95 22.25 19.95 21.1C19.9 20.25 20.3 19.45 20.95 18.85C21.15 18.7 21.45 18.6 21.7 18.6H21.75C21.9 18.6 22 18.6 22.1 18.6C22.1 18.55 22.15 18.55 22.2 18.55ZM22.2 18.05C22.15 18.05 22.15 18.05 22.1 18.05H21.8C21.75 18.05 21.75 18.05 21.7 18.05C21.3 18.05 20.95 18.2 20.65 18.4C19.85 19.05 19.45 20.05 19.45 21C19.45 22.25 20.3 23.5 20.8 24.15L20.9 24.25C22.45 26.35 24.4 27.95 26.35 28.7C27.85 29.3 28.9 29.55 29.6 29.55C29.9 29.55 30.1 29.5 30.25 29.5C31.1 29.35 32.2 28.75 32.45 28C32.6 27.6 32.7 27.1 32.7 26.65C32.7 26.45 32.55 26.3 32.4 26.2L32.15 26.1L31.95 26C31.5 25.8 30.05 25.1 29.75 25C29.7 25 29.6 24.95 29.45 24.95C29.1 24.95 28.95 25.2 28.9 25.25L28.75 25.45C28.5 25.75 28.3 26.05 28.05 26.3C27.95 26.4 27.8 26.45 27.6 26.45C27.5 26.45 27.4 26.45 27.35 26.4L27.25 26.35C26.35 26 25.5 25.55 24.8 24.9C24.1 24.3 23.5 23.6 23 22.85C22.9 22.7 22.95 22.5 23.05 22.4L23.1 22.35C23.2 22.25 23.3 22.15 23.35 22.05L23.4 22C23.45 21.95 23.5 21.9 23.55 21.85C23.7 21.7 23.8 21.55 23.9 21.4C24 21.25 24.05 21 23.85 20.7C23.8 20.6 23.55 20.05 23.25 19.4L23.15 19.15L22.85 18.5C22.8 18.35 22.7 18.2 22.6 18.1C22.5 18 22.4 17.95 22.3 17.95C22.25 18.05 22.2 18.05 22.2 18.05Z" fill="#472B29"/>
</svg>
